<svg width="157" height="157" viewBox="0 0 157 157" fill="none" xmlns="http://www.w3.org/2000/svg">
<g clip-path="url(#clip0_324_3115)">
<circle cx="78.0234" cy="78.0234" r="78.0234" fill="#DC5296"/>
<path d="M43.7043 52.7641C41.1185 53.3206 35.8159 55.2845 33.9502 56.3974C31.8881 57.6412 30.8079 59.0159 30.0223 61.3726C29.5641 62.8128 29.5314 63.0419 29.9896 63.4674C30.4151 63.893 30.8406 63.7948 33.852 62.4855C35.7177 61.6672 37.3216 61.0453 37.387 61.1107C37.4525 61.1762 36.2414 65.0386 34.703 69.6865C28.0584 89.7184 25.6363 97.8032 25.6363 99.8981C25.6363 101.829 26.52 103.073 28.0912 103.368C29.9569 103.695 30.8079 103.335 31.0698 102.026C31.3316 100.487 31.6917 100.356 32.1826 101.535C33.5574 104.841 38.4017 105.757 43.0169 103.63C45.7337 102.32 49.0396 99.2762 51.1017 96.0684L52.7056 93.6463L53.2947 94.5628C55.7824 98.4579 58.1063 98.4906 61.3468 94.6282L62.7215 92.9589L63.1143 93.9081C64.0308 96.0357 66.4202 96.7558 68.3514 95.512C69.7916 94.5628 71.9519 91.486 74.2104 87.0999C76.0434 83.5976 76.5017 82.9102 76.8944 83.2375C77.5491 83.7612 77.4836 84.3831 76.3707 87.1326C74.6359 91.5187 75.1924 94.53 77.9746 95.9702C79.5457 96.7558 80.0367 96.7885 81.2151 96.1666C82.1316 95.7084 82.1316 95.7084 82.688 97.2795C83.2772 98.9488 85.012 100.716 86.354 101.076C88.0888 101.502 89.4962 100.913 91.3947 98.9488C93.1949 97.1159 96.0099 92.3043 96.0099 91.0605C96.0099 90.5367 96.0754 90.504 97.1555 90.995C98.2029 91.486 98.3011 91.6496 98.3011 92.8934C98.3011 93.9409 98.563 94.6282 99.3813 95.7084C101.476 98.4906 103.866 98.8507 107.335 96.9849L109.07 96.0357L109.594 96.8213C110.314 97.9342 112.67 99.2107 114.471 99.4398C117.777 99.8981 121.934 97.9342 127.825 93.1226C131.229 90.3404 131.917 88.8674 130.837 86.6416C130.018 84.9069 129.462 84.9396 127.793 86.8708C126.974 87.82 125.698 89.162 124.978 89.8494C123.407 91.355 118.431 94.6937 116.075 95.872C114.438 96.6576 114.307 96.6576 113.521 96.1666C113.096 95.872 112.605 95.2501 112.507 94.8246C112.343 94.17 112.507 93.8427 113.227 93.2862C115.06 91.9442 119.413 87.1981 120.493 85.4306C122.425 82.1901 122.326 80.1607 120.133 78.5896C118.268 77.2149 116.926 77.4112 114.667 79.3097C111.099 82.321 108.546 86.6744 108.153 90.3731C107.957 92.4352 107.924 92.5007 106.353 93.5808C102.262 96.3958 101.083 94.8901 103.506 89.8821C104.324 88.18 105.6 86.3471 107.106 84.645C108.383 83.2375 109.43 81.7973 109.43 81.47C109.43 80.5862 107.826 78.6223 107.106 78.6223C105.993 78.6223 102.818 82.2228 101.247 85.2669C100.2 87.329 99.5777 88.18 99.0212 88.311C98.0065 88.5728 97.712 88.2128 97.221 86.2816C96.8937 84.9396 96.6973 84.6777 96.0099 84.5795C95.5189 84.5141 94.6679 84.8087 94.046 85.2342C93.0313 85.9215 92.9004 86.1834 92.8676 87.4927C92.8349 90.1767 88.6779 97.2795 87.1395 97.2795C86.4522 97.2795 85.863 95.5775 85.863 93.4499C85.863 92.2388 86.0921 91.8133 87.4996 90.2422C94.046 83.0084 101.803 71.094 104.684 63.8275L105.535 61.6672L104.88 60.3579C104.029 58.6886 102.753 57.6739 101.476 57.6739C99.4795 57.6739 92.573 65.7587 88.6125 72.7306C85.4047 78.4259 82.9499 84.9069 82.3934 89.2275C82.0006 92.2061 78.7602 94.4646 78.8584 91.7151C78.8911 91.0932 79.513 89.1293 80.2658 87.3945C82.0006 83.2703 82.0006 82.7793 80.1022 81.0118C78.7602 79.8007 78.6292 79.5061 78.8256 78.7205C78.9566 78.1968 79.0875 77.2149 79.1202 76.5275C79.153 75.3164 79.0875 75.2182 78.0728 74.9564C77.3527 74.76 76.7308 74.7927 76.1089 75.0873C75.0287 75.611 73.7522 78.0332 73.7522 79.6043C73.7522 81.5027 69.6934 89.0965 67.2385 91.8133C65.3401 93.8754 65.4383 92.337 67.5331 87.1654C68.4496 84.9396 69.1697 82.9429 69.1697 82.7138C69.1697 82.0592 68.3187 81.5355 67.2385 81.5027C65.9947 81.47 65.6019 81.9282 62.6233 87.1981C60.1357 91.6169 58.4336 93.679 57.3208 93.679C55.8151 93.679 55.2914 91.2896 56.2733 88.9001C57.8445 85.1687 63.0161 79.6043 64.9473 79.6043C65.2092 79.6043 65.9293 79.9643 66.5512 80.4226C68.0568 81.5355 69.0388 81.47 69.6607 80.2589C70.3808 78.8842 70.2826 77.8695 69.3006 76.953C68.5805 76.2656 68.155 76.1674 66.0929 76.1674C64.0963 76.2002 63.3762 76.3638 61.6086 77.2149C59.4811 78.2623 56.3061 81.11 55.0295 83.1393C54.6695 83.7285 54.2767 84.1868 54.1785 84.1868C54.0476 84.154 53.5239 83.4012 52.9674 82.452C52.28 81.2409 51.4945 80.4553 50.2834 79.7352L48.5813 78.7205L51.3308 76.6911C54.4076 74.3999 56.0769 72.6651 58.2373 69.3919C60.2012 66.4788 60.7576 64.6785 60.594 62.1582C60.3648 58.4922 58.1718 55.4809 54.5058 53.6806C52.4764 52.6659 52.0837 52.6004 48.7123 52.535C46.7484 52.5023 44.4898 52.6004 43.7043 52.7641ZM54.5713 57.6084C58.6955 59.9979 56.9607 65.5296 50.0543 71.9777C46.421 75.3819 43.377 77.313 40.9221 77.804C39.8092 78.0332 38.6308 78.3277 38.3362 78.4587C37.8125 78.6551 37.8125 78.5896 38.0744 77.7713C39.5146 73.4834 41.6749 66.3151 41.9695 64.8095C42.395 62.7801 42.1004 61.7327 40.7257 60.4888L40.0056 59.8342L41.904 59.0814C47.5666 56.7574 52.2146 56.2337 54.5713 57.6084ZM99.7086 64.4494C99.1194 66.1842 95.5189 73.3525 93.8168 76.2329C92.0493 79.1788 88.0233 84.8414 87.6632 84.8414C87.4014 84.8414 90.1836 78.3605 91.7547 75.2509C93.8823 71.0285 96.0099 67.8208 98.0393 65.6605C98.9558 64.6785 99.7413 63.893 99.8068 63.893C99.8723 63.893 99.8395 64.1548 99.7086 64.4494ZM117.777 83.2375C116.795 85.136 112.703 89.4893 112.474 88.8674C112.179 88.0491 114.471 84.4813 116.435 82.6484C117.515 81.6337 118.464 80.979 118.529 81.1754C118.595 81.3718 118.235 82.2883 117.777 83.2375ZM46.8793 82.5502C49.596 83.9249 50.2834 86.0197 49.2032 89.4239C48.2213 92.5661 48.2213 92.5989 46.6174 91.4532C44.1953 89.6857 41.0857 89.3911 38.1071 90.6022C37.4852 90.8641 36.1432 91.6496 35.1285 92.337L33.2301 93.6463L34.0156 91.1259C34.4411 89.7512 35.1285 87.4927 35.5213 86.1179L36.2414 83.6303L38.2381 83.4339C39.3509 83.3357 40.9548 82.9429 41.8713 82.6156C43.9661 81.7646 45.3409 81.7646 46.8793 82.5502ZM45.2099 94.4318C45.9301 95.021 45.4063 96.5267 44.0971 97.705C40.9548 100.487 38.5654 101.436 37.4198 100.389C34.5721 97.8032 42.2641 91.9442 45.2099 94.4318Z" fill="white"/>
<path d="M110.706 67.9841C108.219 69.8499 106.549 72.7957 106.975 74.6942C107.171 75.6761 108.808 77.3127 109.561 77.3127C109.757 77.3127 111.23 76.1017 112.801 74.596C115.485 72.0429 115.649 71.781 115.649 70.5045C115.649 69.5553 115.42 68.9006 114.798 68.1805C113.718 66.904 112.31 66.8385 110.706 67.9841Z" fill="white"/>
</g>
<defs>
<clipPath id="clip0_324_3115">
<rect width="156.047" height="156.047" fill="white"/>
</clipPath>
</defs>
</svg>
