<svg width="157" height="157" viewBox="0 0 157 157" fill="none" xmlns="http://www.w3.org/2000/svg">
<g clip-path="url(#clip0_324_3123)">
<circle cx="78.5554" cy="78.0234" r="78.0234" fill="#276CAC"/>
<g clip-path="url(#clip1_324_3123)">
<path d="M123.078 78.0223C120.985 78.5145 115.476 78.7922 115.476 78.7922L114.795 80.9759C114.795 80.9759 117.518 80.7361 119.535 80.9381C119.535 80.9381 120.178 80.8623 120.267 81.6702C120.292 82.4275 120.204 83.248 120.204 83.248C120.204 83.248 120.166 83.7403 119.472 83.8539C118.716 83.9801 113.546 84.1947 113.546 84.1947L112.714 87.0473C112.714 87.0473 112.412 87.6911 113.105 87.5144C113.748 87.3377 119.17 86.3026 119.876 86.4415C120.645 86.6308 121.49 87.6406 121.263 88.562C120.973 89.7107 115.551 93.1692 112.248 92.942C112.248 92.942 110.508 93.043 109.058 90.7079C107.671 88.4737 109.55 84.2578 109.55 84.2578C109.55 84.2578 108.692 82.276 109.323 81.6197C109.323 81.6197 109.676 81.2789 110.747 81.2031L112.071 78.4514C112.071 78.4514 110.558 78.5524 109.663 77.4416C108.831 76.394 108.768 75.9017 109.411 75.6114C110.092 75.258 116.371 74.1093 120.708 74.2482C120.708 74.2482 122.221 74.0967 123.545 76.7095C123.545 76.7095 124.175 77.7698 123.103 78.0223" fill="white"/>
<path d="M106.789 88.6252C106.234 89.938 104.759 91.3391 102.968 90.4681C101.153 89.5972 98.2781 83.7151 98.2781 83.7151C98.2781 83.7151 97.1938 81.5314 96.9795 81.5945C96.9795 81.5945 96.7526 81.1653 96.6013 83.551C96.4374 85.9366 96.6391 90.5943 95.6683 91.3264C94.7857 92.0459 93.6888 91.7556 93.1088 90.9099C92.6045 90.0642 92.3902 88.0698 92.6676 84.5355C92.9828 81.0139 93.8023 77.2524 94.8361 76.0911C95.8826 74.9298 96.74 75.7629 97.0678 76.0911C97.0678 76.0911 98.442 77.3407 100.762 81.0644L101.165 81.7586C101.165 81.7586 103.284 85.2676 103.485 85.2676C103.485 85.2676 103.649 85.4317 103.8 85.3055C104.015 85.2424 103.939 84.119 103.939 84.119C103.939 84.119 103.51 80.2818 101.569 73.8064C101.569 73.8064 101.279 72.9986 101.468 72.2412C101.657 71.4713 102.414 71.8373 102.414 71.8373C102.414 71.8373 105.389 73.3268 106.826 78.1486C108.264 82.9703 107.305 87.3377 106.751 88.6505" fill="white"/>
<path d="M92.2263 76.2299C91.9489 76.7221 91.8102 77.429 90.5872 77.6183C90.5872 77.6183 78.6222 78.464 78.0296 79.2971C78.0296 79.2971 77.6135 79.802 78.2692 79.9409C78.9374 80.0797 81.6481 80.4331 82.9341 80.4963C84.3336 80.5089 89.0364 80.5341 90.7385 82.6547C90.7385 82.6547 91.7346 83.6519 91.6967 85.9239C91.6589 88.2591 91.2428 89.0795 90.3351 89.9126C89.4021 90.6952 81.2951 94.3431 76.0628 88.764C76.0628 88.764 73.6546 86.0754 76.8823 84.0305C76.8823 84.0305 79.2274 82.6042 85.1658 84.2704C85.1658 84.2704 86.9561 84.9141 86.8805 85.5705C86.7796 86.2773 85.4053 87.0221 83.4006 86.9716C81.4464 86.9211 80.0217 85.987 80.2991 86.1385C80.5764 86.2395 78.2061 85.0025 77.4749 85.8356C76.7436 86.6182 76.9201 87.1104 77.6262 87.5775C79.4543 88.5999 86.4644 88.2338 88.5447 85.8987C88.5447 85.8987 89.3895 84.9394 88.116 84.1694C86.8426 83.4373 83.2241 83.0207 81.812 82.945C80.463 82.8693 75.445 82.9703 74.6885 81.6449C74.6885 81.6449 73.9698 80.7487 74.7515 78.1863C75.5963 75.5104 81.4464 74.4627 83.968 74.2355C83.968 74.2355 90.9403 73.9831 92.2515 75.3968C92.2515 75.3968 92.4154 75.725 92.2137 76.2172" fill="white"/>
<path d="M72.4568 91.9576C71.6121 92.5761 69.8217 92.2984 69.3048 91.6168C68.8005 90.973 68.624 88.499 68.7248 84.586C68.8257 80.6352 68.8887 75.7629 69.7587 74.993C70.6413 74.2104 71.2086 74.892 71.549 75.4221C71.9273 75.9523 72.3812 76.5329 72.482 77.7699C72.5703 79.0069 72.8729 85.4949 72.8729 85.4949C72.8729 85.4949 73.2637 91.3391 72.4694 91.9576" fill="white"/>
<path d="M74.2346 71.0294C71.776 71.8625 70.0992 71.5848 68.6619 70.9789C68.0441 72.077 67.6658 72.4179 67.1993 72.481C66.4933 72.5567 65.8629 71.4333 65.7368 71.0672C65.6233 70.7896 65.2829 70.3099 65.6864 69.2117C64.2995 67.9495 64.186 66.2833 64.4255 65.1347C64.766 63.8219 67.1111 58.8361 74.285 58.2428C74.285 58.2428 77.7775 57.9777 78.37 59.8459H78.4961C78.4961 59.8459 81.8877 59.8459 81.812 62.8879C81.812 65.9173 78.0548 69.704 74.222 71.0168M77.4118 62.3199C75.155 62.6607 71.6878 65.6901 70.0361 68.1641C72.583 68.6311 77.0588 68.4418 79.0509 64.3773C79.0509 64.3773 79.9965 61.8655 77.4118 62.3072M67.5271 64.2764C66.8085 65.4376 66.7706 66.1319 67.1111 66.6241C67.9432 65.3619 69.4562 63.3675 71.6752 61.8402C69.9605 62.0043 68.5106 62.749 67.5271 64.289" fill="white"/>
<path d="M128.449 91.8312C126.798 95.883 125.398 99.9727 124.616 106.12C124.616 106.12 124.427 107.306 123.444 106.915C122.46 106.562 120.859 104.933 120.494 102.674C120.141 99.7076 121.452 94.6965 124.163 88.928C123.368 87.6531 122.826 85.8103 123.293 83.21C123.293 83.21 123.973 78.3756 128.815 74.0082C128.815 74.0082 129.395 73.5033 129.723 73.6548C130.101 73.8063 129.937 75.3841 129.634 76.1541C129.332 76.9114 127.188 80.6477 127.188 80.6477C127.188 80.6477 125.839 83.1848 126.218 85.1665C128.752 81.2535 134.514 73.3519 138.107 75.8385C140.364 77.4542 140.364 82.6546 138.662 85.6714C137.325 88.0318 133.53 92.9672 128.474 91.8186M135.913 79.6379C134.589 81.0768 132.244 83.8033 130.34 87.489C132.333 87.2618 134.249 86.1889 134.829 85.6209C135.775 84.7752 137.968 82.5032 137.615 79.4864C137.615 79.4864 137.414 77.9212 135.901 79.6379" fill="white"/>
<path d="M55.8142 93.9518C49.485 95.883 43.5214 94.9742 40.2559 94.1411C40.1802 95.4412 40.0416 95.9966 39.8272 96.2112C39.5624 96.4889 37.4947 97.688 36.3474 95.9966C35.8431 95.1888 35.5909 93.7372 35.4396 92.4371C28.1017 89.0921 24.7102 84.2072 24.5967 83.9926C24.4328 83.8412 22.7559 82.0993 24.4202 79.9408C25.9836 77.997 31.1277 76.0531 35.7422 75.2831C35.8935 71.3197 36.3474 68.3281 36.8895 66.9523C37.5578 65.3745 38.4025 66.8008 39.1464 67.8611C39.7642 68.6563 40.1298 72.1149 40.1676 74.8792C43.181 74.7277 44.9839 74.955 48.3503 75.5608C52.7505 76.3434 55.6881 78.5902 55.436 81.14C55.2343 83.6266 52.9396 84.6743 52.0696 84.75C51.1492 84.8131 49.7245 84.1694 49.7245 84.1694C48.7411 83.715 49.6489 83.2984 50.8214 82.7935C52.0948 82.1624 51.8049 81.5186 51.8049 81.5186C51.3384 80.1302 45.6269 79.1456 39.9659 79.1582C39.9407 82.3012 40.1046 87.4891 40.1929 90.5185C44.1644 91.2758 47.1273 91.1243 47.1273 91.1243C47.1273 91.1243 61.5887 90.7078 62.03 81.4429C62.4713 72.178 47.556 63.3044 36.5491 60.4896C25.5675 57.6243 19.3517 59.6439 18.8096 59.9216C18.2296 60.2119 18.7718 60.3129 18.7718 60.3129C18.7718 60.3129 19.377 60.4012 20.4108 60.742C21.4951 61.0955 20.6504 61.6509 20.6504 61.6509C18.7718 62.2441 16.6536 61.8654 16.2628 61.0197C15.8593 60.174 16.5275 59.3914 17.3219 58.2933C18.0909 57.132 18.9609 57.1699 18.9609 57.1699C32.5524 52.4238 49.132 60.9314 49.132 60.9314C64.6525 68.7573 67.3002 77.9843 67.0228 81.5565C66.758 85.0782 65.4089 91.0234 55.8268 93.9518M25.9836 81.14C24.4454 81.8847 25.5045 82.9955 25.5045 82.9955C28.4043 86.1006 31.9724 88.0571 35.3514 89.2562C35.7422 83.879 35.6792 81.9857 35.717 79.2845C30.4216 79.6631 27.3705 80.5088 25.9836 81.14Z" fill="white"/>
</g>
</g>
<defs>
<clipPath id="clip0_324_3123">
<rect width="156.047" height="156.047" fill="white" transform="translate(0.532043)"/>
</clipPath>
<clipPath id="clip1_324_3123">
<rect width="123.723" height="51.2725" fill="white" transform="translate(16.1367 55.731)"/>
</clipPath>
</defs>
</svg>
