<svg width="157" height="157" viewBox="0 0 157 157" fill="none" xmlns="http://www.w3.org/2000/svg">
<g clip-path="url(#clip0_324_3147)">
<circle cx="78.0467" cy="78.4862" r="78.0467" fill="#CCA6FF"/>
<g clip-path="url(#clip1_324_3147)">
<path d="M105.718 52.242H96.0117V53.8272H98.57V102.841C98.5132 103.919 98.0997 104.308 96.5306 104.373H96.0157V105.727H106.958V104.373H105.807C103.974 104.304 103.297 103.558 103.265 101.965V82.962H106.448C111.082 82.962 113.733 80.7321 113.733 77.748V57.9019C113.733 54.9219 111.451 52.2379 105.722 52.242M109.071 67.4215V77.9791C109.079 79.6455 108.005 81.1821 105.941 81.1659H103.265V53.8272H105.706C108.005 53.8272 109.071 55.7814 109.071 57.2694V67.4256V67.4215ZM48.7174 82.9295H51.5757V102.091C51.5757 103.838 50.258 105.18 48.6038 105.18C46.9497 105.18 45.7698 103.81 45.7698 102.091V57.0991C45.7698 55.8625 46.0212 52.9718 48.1214 52.992C49.8567 53.0001 51.0608 54.5895 51.6203 57.0059C52.2122 59.5358 52.5731 65.3579 52.5731 67.9324C52.5731 68.8 52.8934 69.092 53.8462 69.092H55.8896V52.2055H54.2192V53.0082C54.2151 53.8637 53.6759 53.7948 53.2339 53.5232C51.6527 52.5055 49.8607 51.7068 48.1295 51.7271C45.3157 51.7352 41.2695 52.9799 41.2533 58.3803V98.1253C41.3019 105.034 44.963 106.311 48.5552 106.356C51.3527 106.368 52.5893 104.892 53.6759 104.357C54.3894 104.012 54.9368 104.892 54.9368 105.91H56.3883V82.9255H58.7317V81.2105H48.7133V82.9255L48.7174 82.9295ZM72.3787 81.2429L74.937 59.7101L77.8359 81.2429H72.3787ZM85.0121 101.92V101.965L78.8333 52.2339H78.8049V52.2501H73.9518L67.7243 102.078C67.3837 103.668 67.3594 104.065 64.9511 104.191L64.9592 104.535V105.719H72.626V104.365C71.6327 104.365 70.6961 104.077 70.2258 103.647C69.9339 103.303 69.8447 102.897 69.8204 102.589L72.1436 82.9295H78.0629L80.4915 102.557C80.4875 103.806 80.3577 104.268 78.8535 104.365H78.1278V105.719H87.8624V104.365H87.5988C85.7379 104.268 85.1176 103.12 85 101.92" fill="white"/>
</g>
</g>
<defs>
<clipPath id="clip0_324_3147">
<rect width="156.093" height="156.093" fill="white" transform="translate(0 0.439453)"/>
</clipPath>
<clipPath id="clip1_324_3147">
<rect width="72.472" height="54.6327" fill="white" transform="translate(41.2533 51.7271)"/>
</clipPath>
</defs>
</svg>
