<svg width="157" height="157" viewBox="0 0 157 157" fill="none" xmlns="http://www.w3.org/2000/svg">
<g clip-path="url(#clip0_324_3154)">
<circle cx="78.4999" cy="78.4862" r="78.0467" fill="#CCA6FF"/>
<path fill-rule="evenodd" clip-rule="evenodd" d="M107.337 71.557C107.901 72.2603 108.479 72.9611 109.045 73.6644L109.87 74.7168C111.485 71.3542 113.06 67.9847 114.595 64.6083C114.725 64.2806 114.909 63.9798 115.139 63.7201C115.788 63.0373 116.737 62.7781 117.632 62.7781C118.136 62.7704 118.636 62.8782 119.096 63.0938C119.457 63.2653 119.794 63.489 120.096 63.7586L120.572 64.4414C120.643 64.6263 120.711 64.8111 120.765 64.9959C120.89 65.4531 120.902 65.9366 120.799 66.4C120.618 66.9929 120.39 67.5683 120.116 68.1198C119.14 70.3197 118.147 72.499 117.13 74.6629C116.112 76.8268 115.022 79.0421 113.958 81.242C114.08 82.2225 114.222 83.2005 114.378 84.1631C114.924 87.5438 115.556 90.909 116.134 94.2717C116.173 94.5529 116.186 94.8375 116.171 95.1213C116.098 95.8318 115.801 96.496 115.327 97.008C115.011 97.342 114.643 97.6164 114.239 97.8191C114.161 97.8697 114.079 97.9135 113.995 97.9501C113.417 98.1787 112.791 98.2364 112.185 98.1169C111.758 98.0282 111.347 97.8725 110.965 97.6549L110.404 97.1928C110.156 96.8915 109.966 96.5429 109.843 96.166C109.823 96.0531 109.789 95.9427 109.772 95.8323L108.208 87.4051C108.12 86.7942 108.033 86.1859 107.964 85.5929C107.814 85.436 107.673 85.2697 107.542 85.0949C107.122 84.5142 106.823 83.8469 106.664 83.1363L106.576 82.7282C106.596 82.451 106.596 82.1737 106.63 81.8965L106.664 81.5449C106.42 81.1572 106.176 80.7876 105.91 80.418C104.117 77.869 101.992 75.6127 100.114 73.1356C99.9723 72.9328 99.8138 72.73 99.6576 72.5093C99.0034 71.5705 98.4272 70.5743 97.9353 69.5316L97.4962 67.9915C97.4538 67.535 97.5062 67.0743 97.6499 66.6413C97.7137 66.4427 97.7954 66.2511 97.8938 66.0689C98.2149 65.4563 98.6804 64.941 99.2454 64.5724C99.5655 64.3378 99.9221 64.164 100.299 64.059C100.608 64.0045 100.919 63.9676 101.231 63.9486L101.653 64.0051L102.056 64.1334L102.461 64.3362L102.812 64.6519L103.11 65.0216C103.544 65.9771 104.026 66.9084 104.551 67.8118C105.396 69.1194 106.323 70.3662 107.325 71.5441L107.337 71.557ZM79.446 66.4231C79.5594 66.3643 79.6768 66.3145 79.7973 66.2742C80.7408 66.0119 81.7434 66.1309 82.6076 66.6079C82.8194 66.7272 83.0188 66.8691 83.2029 67.0315C83.5554 67.3297 83.8531 67.6934 84.0811 68.1044C84.6788 69.9347 83.8177 71.0051 82.7467 72.3168L78.3384 77.1657L73.069 82.6717L71.8224 91.2478L71.2247 95.7579L71.1027 96.3303L70.7856 96.9952L69.5902 98.1426C69.5303 98.1636 69.4716 98.1885 69.4146 98.217C68.8563 98.4723 68.2487 98.5857 67.641 98.5482C67.1532 98.4841 66.6818 98.3211 66.2529 98.0681C65.898 97.8387 65.5704 97.5656 65.2771 97.2544C64.986 96.8838 64.7873 96.4427 64.6989 95.971C64.6656 95.4702 64.6951 94.9671 64.7867 94.4744C65.0502 92.1822 65.2747 89.9105 65.5942 87.6541L66.0334 84.8459C65.9455 84.6431 65.8577 84.4378 65.7894 84.235C65.5779 83.5437 65.495 82.8159 65.5454 82.0916L65.6528 81.5551L66.0382 80.5771L65.5503 78.9138C64.6038 76.0285 63.3377 73.2948 62.3204 70.4301C62.2496 70.1888 62.1618 69.9295 62.0764 69.6728C61.692 68.4332 61.4216 67.1575 61.2689 65.8635C61.2198 65.1484 61.3725 64.434 61.708 63.81C62.0534 63.2466 62.5154 62.7727 63.0596 62.4238L63.2889 62.2955C64.0039 61.9143 64.8182 61.7908 65.6064 61.9438C65.9278 62.0186 66.2403 62.1305 66.5383 62.2775L66.8896 62.5162L67.2043 62.8679L67.4483 63.2735L67.6069 63.7561C67.6947 64.2695 67.7654 64.7828 67.8337 65.2962C68.08 66.6912 68.4508 68.0586 68.9413 69.3802C69.2219 70.1939 69.5219 70.9717 69.8366 71.7649L71.154 75.1481C73.7179 72.3758 76.3014 69.6215 78.8654 66.8492C79.0581 66.6978 79.2508 66.5489 79.446 66.4205V66.4231Z" fill="white"/>
<path fill-rule="evenodd" clip-rule="evenodd" d="M92.8123 78.2104L92.2487 80.2075C91.7233 82.3445 91.0831 84.4485 90.3312 86.5093L90.2434 86.73L90.0141 87.6182C92.439 88.2291 94.8786 88.8015 97.2864 89.5588C97.5996 89.648 97.9049 89.7657 98.1988 89.9105C98.5567 90.0779 98.8982 90.2816 99.2185 90.5188L99.8504 91.1477C100.077 91.4713 100.26 91.8264 100.394 92.2027L100.536 93.0524L100.465 93.92C100.352 94.4207 100.169 94.9008 99.9211 95.3446C99.8845 95.4165 99.8333 95.4909 99.7967 95.5654C99.5208 95.9155 99.2026 96.2261 98.8502 96.4895C98.2619 96.8922 97.5643 97.0807 96.8644 97.026C95.7934 96.9336 94.7907 96.4715 93.7734 96.1378C90.7508 95.1958 87.6746 94.5129 84.6032 93.8455C84.3541 93.8002 84.1093 93.7324 83.8713 93.6428C83.4549 93.5014 83.0634 93.289 82.7125 93.0139L82.2246 92.5159C81.979 92.1603 81.8001 91.7587 81.6977 91.3325C81.654 91.0708 81.6369 90.8049 81.6465 90.5394C81.6969 90.1591 81.7669 89.7821 81.8563 89.4099L82.0661 89.1891C82.7345 87.4334 83.4029 85.6596 84.0348 83.8654L86.6524 74.3113C87.1403 71.041 87.6282 67.7819 88.1161 64.5338C88.2576 63.9794 88.3796 63.4429 88.5211 62.909C88.8788 61.9546 89.5763 61.1848 90.4652 60.7634C91.3542 60.342 92.3643 60.3023 93.2807 60.6527C93.7996 60.8742 94.2757 61.1935 94.6858 61.5947C94.8273 61.7795 94.9664 61.9644 95.1079 62.1697C95.1414 62.2654 95.1822 62.3581 95.2299 62.4469C95.369 62.8099 95.429 63.2012 95.4055 63.5918C95.3745 63.8629 95.3156 64.1298 95.2299 64.3875C94.9664 65.1268 94.7224 65.8841 94.498 66.6593C93.8832 69.026 93.6563 71.503 93.3929 73.9416C93.3392 74.455 93.2685 74.9684 93.2172 75.4818C93.0928 76.4059 92.9879 77.3094 92.7952 78.2155L92.8123 78.2104ZM58.1048 79.7634C58.561 80.4667 59.0001 81.1855 59.4393 81.8888C59.8781 82.6579 60.2481 83.4683 60.5444 84.3094C60.7228 84.8704 60.8582 85.4455 60.9493 86.0293C60.9835 86.25 61.003 86.4733 61.0201 86.6761C61.0745 87.4452 61.0153 88.2185 60.8444 88.9684L60.7395 89.2456C60.1419 90.4829 58.7538 91.0733 57.5681 91.3325C57.2961 91.3937 57.0207 91.4374 56.7436 91.4634L56.1532 91.2838C55.9231 91.1775 55.7005 91.0539 55.4872 90.9141C55.0293 90.5978 54.6643 90.1533 54.4333 89.6307C54.3188 89.338 54.2306 89.0346 54.1698 88.7245C54.0621 88.052 53.8988 87.3907 53.6819 86.748C53.155 85.1206 52.3304 83.6061 51.4693 82.1275C50.4934 80.4436 49.4322 78.8188 48.4662 77.1169L47.7977 75.9361C46.8219 77.045 45.8851 78.1539 44.9362 79.2731C45.163 81.2317 45.2875 83.2288 45.3582 85.2053C45.3924 86.5555 45.3924 87.9211 45.3216 89.2533C45.5509 90.8422 45.7973 92.4312 45.9364 94.0201C45.9614 94.405 45.9318 94.7917 45.8486 95.1675C45.6994 95.5723 45.4857 95.9473 45.2167 96.2764C44.2677 97.4033 42.6869 97.8833 41.2817 97.6061C41.089 97.5702 40.8963 97.5137 40.7035 97.4598L40.1571 97.162C39.9136 96.985 39.7001 96.7664 39.5252 96.5152C39.1569 95.9607 39.0861 95.2779 38.9812 94.631C38.7178 93.0601 38.525 91.4891 38.3323 89.9002C38.4714 87.3333 38.3128 84.7253 38.1908 82.1378C38.1631 81.9263 38.0915 81.7239 37.981 81.5449C37.8796 81.3752 37.7891 81.1985 37.7102 81.0161C37.4126 80.3127 37.1662 79.5555 37.2223 78.7982C37.2676 78.1929 37.3857 77.596 37.5736 77.0219C37.6444 76.8371 37.7127 76.6728 37.8005 76.488C37.7322 75.6743 37.6444 74.8426 37.537 74.0289C37.1516 70.6919 36.6588 67.3754 36.1514 64.0487C36.1318 63.792 36.1318 63.5507 36.1318 63.3094C36.1663 62.6472 36.3602 62.005 36.6954 61.4433C36.948 61.0101 37.3059 60.6556 37.7322 60.4165C37.9529 60.2952 38.1811 60.1898 38.4153 60.1008L39.1008 59.9904C39.5928 59.9737 40.0831 60.0609 40.5425 60.2471C40.8856 60.3791 41.2012 60.5796 41.472 60.8375C41.7491 61.121 41.9857 61.4452 42.1746 61.8001C42.3503 62.289 42.4739 62.7969 42.543 63.3146C42.965 65.7172 43.2992 68.1378 43.6334 70.5405C44.8532 69.1004 46.073 67.6578 47.1976 66.1253C48.5673 64.2418 49.7996 62.2519 50.8838 60.1726C51.0496 59.9133 51.2322 59.6663 51.4302 59.4334C51.7176 59.1243 52.0567 58.8737 52.4304 58.6941C52.5503 58.6367 52.6733 58.587 52.7988 58.5452C53.0876 58.4762 53.3814 58.4333 53.6771 58.4169C53.8893 58.4348 54.0991 58.4528 54.3089 58.4913C54.6727 58.5773 55.0221 58.72 55.3457 58.9149L55.9092 59.3974C56.0312 59.5437 56.1361 59.6926 56.241 59.8389C56.5631 60.319 56.7576 60.8808 56.8046 61.4664C56.8419 61.9237 56.8181 62.3842 56.7338 62.8345C56.6357 63.2122 56.4999 63.5778 56.3288 63.9255C55.8809 64.8854 55.3706 65.8116 54.8017 66.6978C54.0991 67.7861 53.3624 68.8411 52.6402 69.9116L52.2743 70.466L52.7134 71.3182C53.9796 73.6824 55.5409 75.8822 57.0339 78.118C57.3827 78.6725 57.7535 79.2192 58.1048 79.7634Z" fill="white"/>
</g>
<defs>
<clipPath id="clip0_324_3154">
<rect width="156.093" height="156.093" fill="white" transform="translate(0.453186 0.439453)"/>
</clipPath>
</defs>
</svg>
