<svg width="157" height="157" viewBox="0 0 157 157" fill="none" xmlns="http://www.w3.org/2000/svg">
<g clip-path="url(#clip0_324_3160)">
<circle cx="78.9532" cy="78.4862" r="78.0467" fill="#CCA6FF"/>
<path d="M26.0279 72.3352C28.7994 70.9065 31.4953 70.6877 34.2668 71.6119C38.7405 73.1076 41.7304 77.5279 41.3472 82.0776C40.9239 87.0916 37.4929 91.0162 32.6493 91.7172C26.0279 92.6772 21.2913 88.8463 20.1238 83.926C19.9545 83.2116 19.8921 82.4526 19.8877 81.7159C19.8698 76.6572 19.901 71.594 19.8609 66.5353C19.852 65.495 20.1283 65.0351 21.2423 65.1155C22.4632 65.2004 23.693 65.1646 24.9139 65.1244C25.7249 65.0977 26.0502 65.4147 26.0368 66.2362C26.0056 68.2052 26.0279 70.1742 26.0279 72.3352ZM30.3635 86.1942C32.9702 86.2076 35.1179 84.1002 35.1446 81.4927C35.1714 78.9298 32.9167 76.7197 30.2788 76.7242C27.7523 76.7242 25.5734 78.9522 25.5734 81.5284C25.5734 84.1269 27.6766 86.1808 30.3635 86.1942Z" fill="white"/>
<path d="M105.646 72.2772C105.646 70.2769 105.637 68.4597 105.646 66.647C105.655 65.2539 105.771 65.1423 107.183 65.1379C108.369 65.1379 109.558 65.1557 110.744 65.1334C111.479 65.12 111.835 65.3968 111.831 66.1737C111.809 71.6744 111.902 77.1796 111.769 82.6803C111.662 87.1631 107.063 91.552 102.563 91.7976C99.5549 91.9628 96.7299 91.5654 94.2791 89.6188C90.1842 86.3639 89.1326 80.5863 91.8462 76.0768C94.5465 71.5896 100.125 69.8483 104.933 71.9914C105.098 72.0629 105.267 72.1299 105.637 72.2772H105.646ZM101.377 86.1897C104.038 86.1719 106.194 84.0823 106.194 81.5195C106.194 78.9834 103.957 76.7287 101.449 76.7287C98.8063 76.7287 96.5784 78.9254 96.6096 81.5016C96.6408 84.127 98.7573 86.2076 101.382 86.1897H101.377Z" fill="white"/>
<path d="M64.7591 90.369C61.1454 92.9407 56.9569 91.6906 55.0408 89.6859C52.9065 87.449 52.5812 83.953 54.2833 81.3544C56.3509 78.1933 59.8354 77.5593 64.777 79.4524C64.9151 77.2289 63.9259 75.934 61.7603 76.0055C60.125 76.0591 58.5075 76.5725 56.8767 76.8627C56.4578 76.9386 56.0256 76.9297 55.5978 76.961C55.5978 76.5055 55.5756 76.0546 55.5978 75.5992C55.6112 75.3804 55.6959 75.1661 55.7672 74.9562C56.9123 71.4736 56.1281 72.0764 59.7775 71.3397C62.1658 70.8575 64.572 70.7905 66.8891 71.7549C69.1749 72.7104 70.6142 74.3713 70.6587 76.9163C70.73 81.2294 70.681 85.5469 70.6899 89.86C70.6899 90.6012 70.3647 90.9494 69.6116 90.936C68.462 90.9137 67.3079 90.9762 66.1628 90.9092C65.735 90.8824 65.3206 90.5922 64.7681 90.3734L64.7591 90.369ZM58.9576 84.8236C58.8952 86.23 60.1562 87.4222 61.7871 87.4936C63.3422 87.565 64.7725 86.3997 64.8304 85.0201C64.8884 83.636 63.6675 82.4617 62.099 82.3858C60.3924 82.301 59.0244 83.3636 58.9576 84.8236Z" fill="white"/>
<path d="M78.7238 72.3888C79.7219 71.5628 81.2057 70.9958 82.899 70.9779C86.281 70.9422 88.9946 73.4247 89.0615 76.8314C89.1417 81.1444 89.0793 85.462 89.0927 89.775C89.0927 90.5698 88.7585 90.9404 87.9609 90.9314C86.7355 90.918 85.5101 90.8913 84.2892 90.9404C83.3045 90.9806 82.9792 90.543 82.9881 89.6098C83.0148 86.413 83.0237 83.2117 82.9792 80.0148C82.9658 79.2156 82.8009 78.3896 82.5559 77.6261C82.2974 76.8135 81.6112 76.4117 80.7512 76.3938C79.8734 76.376 79.1828 76.8001 78.9466 77.6127C78.6703 78.5637 78.4876 79.5683 78.4698 80.5551C78.4208 83.3813 78.4876 86.2076 78.4965 89.0339C78.501 90.9046 78.4654 90.9314 76.6607 90.9359C75.6225 90.9359 74.5798 90.9136 73.5416 90.9404C72.6994 90.9672 72.3296 90.6278 72.3296 89.7616C72.3474 84.1448 72.3474 78.528 72.3296 72.9112C72.3296 71.9825 72.7262 71.6521 73.6129 71.6834C74.6868 71.7236 75.7695 71.6253 76.839 71.7191C77.3915 71.7682 77.9217 72.0941 78.7238 72.3933V72.3888Z" fill="white"/>
<path d="M128.54 77.9698C128.54 81.765 128.54 85.5601 128.54 89.3553C128.54 90.8331 128.447 90.918 126.936 90.9224C125.898 90.9224 124.86 90.9269 123.817 90.9224C122.543 90.9135 122.324 90.7081 122.32 89.4356C122.311 85.453 122.32 81.4748 122.32 77.4921C122.32 73.8845 122.32 70.2769 122.32 66.6648C122.32 65.2807 122.471 65.1378 123.853 65.1289C124.967 65.1289 126.081 65.1735 127.195 65.1155C128.206 65.0619 128.571 65.4459 128.558 66.4683C128.518 70.2992 128.54 74.13 128.54 77.9654V77.9698Z" fill="white"/>
<path d="M48.8555 74.4448C50.2814 72.8241 51.7875 71.8329 53.7793 71.8061C55.0581 71.7882 55.3834 72.2124 55.0046 73.4536C54.6437 74.6234 54.2382 75.7798 53.8907 76.9541C53.6857 77.6506 53.2846 77.9542 52.545 78.0346C49.8091 78.3248 48.8599 79.3874 48.8243 82.1646C48.7931 84.6203 48.8198 87.0759 48.8154 89.5316C48.8154 91.1033 48.7753 91.139 47.1667 91.139C45.977 91.139 44.7917 91.1211 43.602 91.1434C42.8356 91.1613 42.5415 90.813 42.5459 90.0674C42.5549 84.3747 42.5549 78.682 42.5459 72.9893C42.5459 72.2168 42.9202 71.9222 43.6421 71.9311C44.8318 71.94 46.0171 71.9311 47.2068 71.9311C48.6372 71.9311 48.7842 72.0874 48.8109 73.5295C48.8109 73.7528 48.8288 73.9715 48.851 74.4448H48.8555Z" fill="white"/>
<path d="M120.248 81.5907C120.248 84.2339 120.221 86.8771 120.261 89.5158C120.279 90.5829 119.856 90.9937 118.804 90.9446C117.619 90.891 116.429 90.9133 115.24 90.9357C114.42 90.9535 114.01 90.6588 114.014 89.7703C114.032 84.2607 114.032 78.7555 114.014 73.2458C114.014 72.3752 114.375 72.0314 115.213 72.0492C116.474 72.0716 117.739 72.076 119 72.0492C119.905 72.0314 120.266 72.4332 120.257 73.3262C120.235 76.081 120.248 78.8358 120.248 81.5862V81.5907Z" fill="white"/>
<path d="M130.719 81.5151C130.719 78.8005 130.741 76.0858 130.706 73.3712C130.692 72.4202 131.031 72.0094 132.002 72.0451C133.223 72.0898 134.453 72.0853 135.674 72.0451C136.592 72.0183 136.931 72.438 136.931 73.3221C136.917 78.7871 136.922 84.2521 136.931 89.7171C136.931 90.5341 136.614 90.9583 135.737 90.936C134.476 90.9003 133.214 90.9047 131.953 90.936C131.04 90.9583 130.706 90.552 130.715 89.659C130.746 86.9444 130.724 84.2297 130.724 81.5151H130.719Z" fill="white"/>
<path d="M117.138 65.1377C118.951 65.1467 120.293 66.3299 120.248 67.8792C120.199 69.433 118.809 70.6072 117.049 70.5849C115.342 70.5626 114.041 69.3794 114.032 67.839C114.023 66.2227 115.284 65.1288 117.142 65.1377H117.138Z" fill="white"/>
<path d="M133.838 70.5806C132.065 70.5896 130.715 69.4019 130.719 67.8258C130.719 66.2363 131.945 65.1424 133.732 65.1335C135.59 65.1245 136.891 66.2006 136.918 67.7722C136.944 69.3528 135.612 70.5672 133.843 70.5806H133.838Z" fill="white"/>
</g>
<defs>
<clipPath id="clip0_324_3160">
<rect width="156.093" height="156.093" fill="white" transform="translate(0.906494 0.439453)"/>
</clipPath>
</defs>
</svg>
