<svg width="157" height="157" viewBox="0 0 157 157" fill="none" xmlns="http://www.w3.org/2000/svg">
<g clip-path="url(#clip0_324_3156)">
<circle cx="78.3178" cy="78.4862" r="78.0467" fill="#CCA6FF"/>
<path d="M38.3535 70.8692C38.3535 68.3183 37.5214 66.2809 35.8734 64.8185C34.3856 63.5021 32.4685 62.8104 30.5053 62.8816C29.1244 62.9216 27.7764 63.3231 26.5893 64.0482L26.3935 64.1598V63.9477C26.3967 63.7878 26.3634 63.6293 26.2964 63.4849C26.2293 63.3406 26.1303 63.2142 26.0073 63.116C25.88 63.022 25.7343 62.9574 25.5804 62.9265C25.4264 62.8957 25.2678 62.8994 25.1153 62.9374C22.9856 63.3519 20.9152 64.0401 18.9531 64.9859L18.8171 65.0585C18.1047 65.4269 18.0611 65.4437 18.1373 66.8838C18.1373 67.2522 18.1754 67.3638 18.3331 67.3861C18.4908 67.4085 18.877 67.241 18.9694 67.2075C19.5504 66.9894 20.1423 66.803 20.7425 66.6493H20.8622L20.9002 66.7721C21.0036 67.1684 21.0634 69.3175 21.0634 73.1578C21.0253 78.8289 21.096 84.8796 21.1939 85.3987C21.2918 85.9179 21.3462 86.0462 23.2988 86.0462C23.8916 86.0462 25.7027 86.0462 26.1161 86.0183C26.66 85.9458 26.8939 85.8397 26.9319 85.3541C26.9319 85.008 26.9319 83.9419 26.9319 82.8199C26.9319 81.6031 26.9319 80.3528 26.9319 79.9062V79.7834H27.1005C29.3413 79.7443 32.7352 79.6941 35.5471 77.1041C36.4084 76.3235 37.1022 75.3677 37.5844 74.2972C38.0666 73.2267 38.3267 72.0651 38.3481 70.886L38.3535 70.8692ZM33.2519 69.6747C33.1866 72.0247 32.5067 73.9169 31.2939 75.1616C29.8635 76.6241 27.949 76.5962 26.9156 76.5906H26.7905V76.4678C26.4098 71.0813 26.9319 67.6262 28.3297 66.186C28.5764 65.9259 28.8742 65.7227 29.2034 65.5899C29.5325 65.457 29.8855 65.3977 30.2387 65.4158C31.0491 65.4381 33.3443 66.2698 33.2519 69.6747Z" fill="white"/>
<path d="M56.0842 81.9101C56.057 81.7761 55.9591 81.564 55.8286 81.564C55.698 81.564 55.7252 81.564 55.3663 81.7985L55.2684 81.8599C54.9312 82.0217 54.6646 82.178 54.3764 82.3287L53.789 82.6302L53.5714 82.7474L53.5986 82.5018C53.7183 81.3073 53.8216 80.029 53.838 79.7946C54.0773 76.1441 53.8379 74.5309 52.7502 73.1745C51.4884 71.5 49.3509 70.7687 46.2236 70.8469C44.7007 70.9208 43.1913 71.1756 41.7256 71.606C40.8228 71.9074 40.7738 72.0582 40.7684 72.46C40.7865 72.9958 40.8724 73.5268 41.024 74.0397C41.1926 74.6537 41.2361 74.7486 41.5135 74.7486C41.644 74.7486 41.8942 74.6872 42.2097 74.6314C43.188 74.4147 44.1841 74.2932 45.1847 74.2686C47.5126 74.2239 48.0293 75.1952 48.1435 76.9981V77.1432H48.0021C41.2959 77.0762 38.8049 80.0737 38.7016 82.6581C38.6567 83.4102 38.8473 84.1573 39.2455 84.7903C39.8492 85.7225 41.0294 86.2193 42.672 86.2193C43.6205 86.1622 44.5639 86.0353 45.4947 85.8397C46.2779 85.7002 47.0883 85.5606 47.8933 85.4546H48.0347V85.6165C48.0347 85.6444 48.0347 85.6779 48.0347 85.689C48.0501 85.8229 48.0913 85.9522 48.1559 86.0695C48.2206 86.1869 48.3073 86.2898 48.411 86.3724C48.5148 86.455 48.6336 86.5156 48.7604 86.5507C48.8872 86.5857 49.0195 86.5945 49.1497 86.5765C50.6018 86.5765 55.5349 84.3438 56.0516 83.7465C56.2745 83.4786 56.1658 82.2115 56.1059 81.9101H56.0842ZM48.1652 79.0187V79.2252C48.1054 80.2411 48.0782 80.6988 47.8389 83.3391V83.4284H47.7627C46.9971 83.8034 46.1582 83.9943 45.3098 83.9866C44.5952 84.0329 43.8917 83.7882 43.3518 83.3056C43.2155 83.1734 43.1081 83.013 43.0368 82.8349C42.9656 82.6569 42.932 82.4653 42.9385 82.2729C43.0527 80.0402 45.7721 79.175 48.0347 78.8289H48.2033L48.1652 79.0187Z" fill="white"/>
<path d="M85.1929 82.2171C85.1168 81.8543 85.0733 81.7594 84.9156 81.7482C84.7134 81.8288 84.5156 81.9201 84.3227 82.0217C83.7856 82.325 83.2297 82.5917 82.6584 82.8199L82.4518 82.8925L82.479 82.686C82.8379 78.7005 82.8597 76.1217 82.5388 74.57C81.8535 71.2599 79.357 70.9027 78.3182 70.9027C76.4092 70.9027 74.6905 72.1084 73.2003 74.4751L73.0425 74.743L72.9664 74.4416C72.4225 72.1475 70.9866 70.9362 68.9036 70.9362C65.9448 70.9362 64.3458 73.5987 63.6605 74.7319L63.4103 75.1561V74.6593C63.4103 73.5932 63.4375 71.8293 63.4103 71.6451C63.3505 71.3214 63.0785 71.3046 62.8012 71.3046C62.6108 71.3046 59.0484 71.4386 58.8743 71.4665C58.4338 71.5223 58.4011 71.6563 58.3739 73.8499C58.3141 75.7868 58.1455 85.075 58.2271 85.4713C58.3087 85.8676 58.6024 85.9849 59.1028 85.9849L60.3754 85.9458C60.9846 85.9458 61.6046 85.9067 61.8439 85.9067H61.8766C63.2689 85.8732 63.3233 85.8676 63.3994 85.5271C63.4375 85.3876 63.5137 84.1763 63.5789 83.2163C63.6442 82.2562 63.6932 81.3743 63.7312 81.0673C64.0304 77.7572 64.5199 74.5365 66.7552 74.5365C67.0967 74.557 67.421 74.6974 67.6735 74.9342C67.9261 75.171 68.0915 75.4898 68.1421 75.8371C68.2835 76.518 68.0769 79.3871 67.8974 81.9213C67.7777 83.5958 67.6689 85.142 67.7179 85.3653C67.8212 85.8732 68.0116 86.0128 68.6479 86.0128L71.7209 85.9458C72.912 85.9458 72.9555 85.8118 72.9936 85.0024C73.0355 82.5857 73.25 80.1753 73.6354 77.7907C74.065 75.3905 75.2126 74.5365 76.1373 74.5365C76.4964 74.5476 76.8414 74.6825 77.1167 74.9194C77.392 75.1564 77.5815 75.4816 77.6547 75.8426C77.8396 76.7246 77.5949 79.0913 77.3555 81.3798C77.1598 83.3 76.9748 85.1029 77.0891 85.6332C77.3066 86.6938 77.9158 86.6937 78.2095 86.6937C79.3679 86.6937 82.343 85.6723 84.7361 84.1763C85.4812 83.7521 85.5084 83.7298 85.1929 82.2171Z" fill="white"/>
<path d="M92.6224 75.7812L92.6605 74.9775C92.7095 73.9504 92.8019 72.0414 92.7747 71.874C92.6877 71.4274 92.4538 71.3883 92.1384 71.3883C91.8229 71.3883 90.213 71.4609 88.8751 71.5279C88.0701 71.5614 87.8689 71.5949 87.7547 71.8795C87.4446 72.8396 87.4718 92.7947 87.6078 93.6487C87.6948 94.0562 87.858 94.0953 88.3475 94.0953C88.5161 94.0953 90.1206 94.0562 91.7522 93.9613C92.5517 93.8943 92.84 93.8608 92.9325 93.6878C93.0303 93.3808 93.063 89.6856 93.0793 87.6873V85.6611L93.2588 85.7448C94.4222 86.2938 95.6825 86.5939 96.9626 86.6268C97.8691 86.6334 98.7653 86.43 99.5846 86.0318C100.404 85.6336 101.125 85.0509 101.694 84.327C102.606 83.1331 103.257 81.7525 103.604 80.2782C103.951 78.804 103.986 77.2705 103.707 75.7812C103.206 73.3922 101.194 70.8581 98.442 70.8581C96.1087 70.8581 93.7102 72.6945 92.5844 75.7924L92.6224 75.7812ZM92.8617 82.6246V82.485C92.9977 80.2523 93.1011 78.4438 94.1834 76.5069C94.6294 75.6752 95.5648 74.2741 96.8321 74.2741C98.0994 74.2741 98.6052 75.7143 98.7357 76.3338C99.1001 78.0698 98.8173 80.7323 97.5827 82.2283C97.3355 82.5529 97.0194 82.8151 96.6583 82.9951C96.2973 83.175 95.901 83.2679 95.4996 83.2665C94.6273 83.2388 93.7654 83.0634 92.9488 82.7474L92.8509 82.7139L92.8617 82.6246Z" fill="white"/>
<path d="M116.048 82.0385C115.999 81.8375 115.961 81.6701 115.846 81.6701C115.732 81.6701 115.689 81.6701 115.172 82.1445C114.767 82.4994 114.277 82.7365 113.752 82.8311C113.1 82.8311 112.735 82.2059 112.621 81.6589C112.409 80.6375 112.567 77.2269 112.675 74.7374C112.741 73.342 112.801 72.0414 112.757 71.8293C112.665 71.3883 112.284 71.3548 111.762 71.3548C110.81 71.3548 109.325 71.4274 107.884 71.5614C107.144 71.6172 107.133 71.7288 107.09 73.1187C107.014 77.0874 106.905 82.5408 107.133 83.6349C107.541 85.5885 108.613 86.5765 110.331 86.5765C111.963 86.5765 114.639 85.0583 115.77 84.0033C116.156 83.674 116.314 83.4451 116.042 82.0385H116.048ZM110.359 68.3127C110.867 68.3341 111.374 68.2458 111.847 68.0535C112.32 67.8612 112.749 67.5692 113.105 67.1964C113.292 66.9775 113.425 66.7155 113.492 66.4327C113.559 66.15 113.559 65.8547 113.491 65.572C113.116 63.7747 111.174 63.5793 110.359 63.5793C109.352 63.5793 108.069 63.9198 107.438 64.6957C107.267 64.9023 107.148 65.1484 107.09 65.4129C107.032 65.6773 107.038 65.9522 107.106 66.214C107.519 68.2067 109.88 68.3127 110.359 68.3127Z" fill="white"/>
<path d="M127.263 82.1892C127.23 82.0608 127.17 81.765 127.056 81.7482C126.907 81.8426 126.767 81.951 126.637 82.072C126.61 82.0917 126.584 82.1141 126.561 82.139L126.474 82.1892C126.03 82.573 125.485 82.812 124.907 82.8758C124.364 82.8758 123.945 82.4627 123.782 81.7092C123.618 80.9556 123.749 75.6808 123.852 71.0422C123.939 67.4643 124.021 64.0873 123.945 63.7245C123.937 63.637 123.911 63.5523 123.868 63.4757C123.826 63.3992 123.769 63.3325 123.701 63.28C123.632 63.2274 123.553 63.1901 123.47 63.1706C123.387 63.151 123.3 63.1495 123.216 63.1663C123.047 63.1663 122.514 63.1663 122.009 63.2053L120.709 63.2388H120.649C118.539 63.3672 118.539 63.3672 118.473 63.9477C118.37 64.6399 118.223 76.4957 118.201 78.7285C118.125 80.4683 118.183 82.2116 118.375 83.9419C118.48 84.6831 118.837 85.3622 119.384 85.8581C119.931 86.3539 120.632 86.6343 121.361 86.6491C123.276 86.6491 125.712 85.1587 126.8 84.2768C127.562 83.6461 127.551 83.5846 127.263 82.1892Z" fill="white"/>
<path d="M138.39 82.0385C138.352 81.8375 138.303 81.6701 138.2 81.6701C138.097 81.6701 138.037 81.6701 137.515 82.1445C137.113 82.5004 136.624 82.7377 136.101 82.8311C135.81 82.7981 135.539 82.6637 135.333 82.4504C135.127 82.2371 134.999 81.9577 134.969 81.6589C134.757 80.643 134.904 77.3777 135.024 74.7486C135.089 73.3476 135.149 72.0414 135.105 71.8293C135.013 71.3883 134.638 71.3548 134.11 71.3548C133.158 71.3548 131.673 71.4274 130.232 71.5614C129.503 71.6172 129.482 71.7288 129.438 73.1187C129.356 77.5563 129.264 82.6078 129.487 83.6349C129.889 85.5885 130.961 86.5765 132.68 86.5765C134.311 86.5765 136.987 85.0583 138.118 84.0033C138.505 83.674 138.662 83.4451 138.385 82.0385H138.39ZM132.696 68.3127C133.207 68.3334 133.716 68.2448 134.192 68.0526C134.667 67.8604 135.099 67.5688 135.459 67.1964C135.644 66.9774 135.775 66.7161 135.841 66.4345C135.907 66.1529 135.907 65.859 135.84 65.5776C135.464 63.7803 133.523 63.5849 132.707 63.5849C131.701 63.5849 130.406 63.9254 129.792 64.7013C129.621 64.9079 129.501 65.154 129.443 65.4185C129.386 65.6829 129.391 65.9578 129.46 66.2195C129.889 68.2067 132.25 68.3127 132.718 68.3127H132.696Z" fill="white"/>
</g>
<defs>
<clipPath id="clip0_324_3156">
<rect width="156.093" height="156.093" fill="white" transform="translate(0.271118 0.439453)"/>
</clipPath>
</defs>
</svg>
