<svg width="157" height="157" viewBox="0 0 157 157" fill="none" xmlns="http://www.w3.org/2000/svg">
<g clip-path="url(#clip0_324_3158)">
<circle cx="78.1355" cy="78.4862" r="78.0467" fill="#CCA6FF"/>
<g clip-path="url(#clip1_324_3158)">
<path d="M57.9869 62.4295C55.4469 63.647 54.3443 65.0021 54.7972 66.3571C54.9941 66.9267 55.9195 67.4569 56.7071 67.4569C57.3765 67.4569 57.6916 68.537 57.6916 70.874C57.6916 76.1763 55.4076 83.8746 52.9661 86.8007C50.623 89.609 46.6654 91.6121 43.4757 91.6121C41.6642 91.6121 39.7346 90.7873 38.8289 89.6286L38.4548 89.1573L40.0694 89.1377C46.4685 89.0395 52.1588 84.9547 52.9857 79.8487C53.6552 75.6461 50.9577 73.0342 45.9762 73.0735C42.4321 73.0931 39.6756 74.3892 36.9781 77.2564C35.3045 79.0435 34.2806 80.6932 33.5127 82.8141C33.0205 84.2084 32.9417 84.3459 32.4495 84.3459C31.6619 84.3459 31.3075 84.8172 31.3075 85.8581C31.3075 86.624 31.4059 86.84 31.9966 87.4095C32.3904 87.7826 32.6858 88.2343 32.6858 88.5092C32.6858 89.2162 33.178 90.8462 33.6702 91.8085C34.6941 93.8116 37.3522 95.6576 39.8528 96.1093C43.6529 96.7966 48.7525 95.7362 52.1194 93.5367C52.9267 93.0064 53.6158 92.594 53.6355 92.6333C53.6749 92.6726 53.8127 93.0064 53.9505 93.3599C54.3246 94.3222 55.25 95.2845 56.1952 95.7754C57.3175 96.345 59.3258 96.4628 60.6253 96.0307C61.8854 95.6183 63.756 94.2633 64.5042 93.2028C65.1145 92.3584 65.3705 92.2013 65.3705 92.6922C65.3705 93.1832 66.0793 94.4204 66.6897 94.9703C67.7726 95.9915 68.4815 96.2271 70.3914 96.2271C71.9468 96.2271 72.3012 96.1682 73.3448 95.6576C74.0733 95.3041 75.0972 94.5186 75.9832 93.6545C77.4402 92.2209 77.4599 92.2209 77.7356 92.6529C78.405 93.6349 80.1377 95.1274 81.2403 95.638C82.2248 96.1093 82.717 96.2271 84.3907 96.286C85.4736 96.3253 86.8519 96.2664 87.4425 96.1486C88.7421 95.8736 90.4747 95.0292 91.6167 94.0865L92.4831 93.3796L92.995 94.1455C94.0583 95.7362 95.5547 96.4235 97.6418 96.286C99.276 96.1682 100.241 95.6773 101.521 94.3222C103.234 92.5155 104.395 89.5894 105.34 84.7387C105.596 83.5015 105.852 82.4213 105.911 82.3428C105.99 82.2446 106.148 83.58 106.285 85.2885C106.679 90.316 107.231 92.8297 108.353 94.4793C109.259 95.8344 110.204 96.3253 111.956 96.3253C116.288 96.3253 118.119 93.8116 119.714 85.6224C120.56 81.2823 121.525 78.7882 122.963 77.2564C123.691 76.4709 123.849 76.1763 123.849 75.5479C123.849 74.6642 123.337 73.8983 122.47 73.4466C121.584 72.9949 119.753 73.0735 118.887 73.6037C117.312 74.5464 116.741 75.8818 115.894 80.7128C114.575 88.0576 114.102 89.9036 113.393 90.5516C112.468 91.3764 112.153 90.0607 111.838 84.1299C111.444 76.7066 110.479 73.7412 108.235 73.1324C106.541 72.6807 104.828 73.4859 103.608 75.3122C102.663 76.7262 102.033 78.5329 101.107 82.5785C99.9848 87.5077 99.1382 89.6679 98.0356 90.4927C97.6221 90.7873 97.4252 90.8266 97.1101 90.6498C96.3422 90.2374 96.2438 89.3537 96.3816 84.4834C96.5391 79.5541 96.3816 78.2384 95.4759 76.4316C94.9443 75.3908 93.8417 74.2125 92.9163 73.7412C90.5929 72.5432 86.399 72.8967 83.7803 74.5464C81.0434 76.2549 79.6848 78.1795 76.9874 84.2477C75.1365 88.4307 74.1914 89.9428 73.0298 90.532C72.7344 90.6891 72.3603 90.7677 72.2028 90.7087C71.3561 90.3945 71.1789 87.9397 71.7499 84.6405C72.2028 82.0286 72.1831 81.4787 71.494 80.7914C70.982 80.3004 70.7655 80.2218 69.8007 80.2218C69.21 80.2218 68.4224 80.3397 68.068 80.4968C67.1819 80.8503 66.1384 82.1268 65.5871 83.5015C64.0316 87.3113 61.6885 90.8266 60.7041 90.8266C59.1092 90.8266 59.2864 88.6271 61.4523 81.3609C64.6026 70.7365 65.213 66.259 63.8741 63.6078C63.1456 62.1742 62.4368 61.7618 60.645 61.7618C59.5818 61.7618 59.1092 61.8796 57.9869 62.4295ZM46.3504 78.1402C47.8074 78.749 48.083 80.32 47.0198 81.9107C45.7203 83.796 42.885 85.21 39.7937 85.4653L38.3367 85.5831L38.4548 84.9154C38.6911 83.7764 39.9119 81.5573 40.9554 80.379C42.058 79.1417 42.944 78.5329 44.1648 78.1402C45.2477 77.8063 45.5628 77.8063 46.3504 78.1402ZM90.5732 78.6115C91.5577 79.5934 91.8727 81.0074 91.5774 82.9712C90.8685 87.5077 88.1908 90.8266 85.2176 90.8266C83.9969 90.8266 83.2093 90.1785 82.7958 88.8038C82.4217 87.547 82.4217 86.6829 82.7958 84.7779C83.5834 80.8306 86.2021 77.8652 88.8799 77.8652C89.7265 77.8652 89.9234 77.9438 90.5732 78.6115Z" fill="white"/>
<path d="M70.7063 71.031C67.5363 71.5809 66.7684 76.1173 69.5643 77.767C70.6078 78.3757 72.2027 78.4347 73.2265 77.9044C75.294 76.8636 75.8846 73.9571 74.3882 72.2486C73.3841 71.1095 72.3011 70.7561 70.7063 71.031ZM72.0255 72.4057C72.4193 72.7984 72.3011 73.5054 71.7695 73.8589C71.3954 74.0946 71.0607 74.1535 70.4503 74.0553C69.7415 73.9375 69.6824 73.9571 69.8793 74.2124C70.3125 74.723 71.3757 74.9587 72.2224 74.7426C73.2462 74.4481 73.7385 73.8982 73.7385 72.9359C73.7385 72.5235 73.7582 72.17 73.7779 72.17C73.896 72.17 74.6245 73.7607 74.6245 74.0357C74.6245 75.0765 73.3447 76.0977 72.0255 76.0977C70.5881 76.0977 69.1114 74.7034 69.3871 73.6233C69.6824 72.4646 71.3167 71.6987 72.0255 72.4057ZM71.8286 77.6098C71.6317 77.6491 71.2773 77.6491 71.041 77.6098C70.785 77.5706 70.9426 77.5313 71.3757 77.5313C71.8089 77.5117 72.0058 77.5509 71.8286 77.6098Z" fill="white"/>
</g>
</g>
<defs>
<clipPath id="clip0_324_3158">
<rect width="156.093" height="156.093" fill="white" transform="translate(0.0887451 0.439453)"/>
</clipPath>
<clipPath id="clip1_324_3158">
<rect width="92.5411" height="34.5636" fill="white" transform="translate(31.3075 61.7617)"/>
</clipPath>
</defs>
</svg>
