<svg width="157" height="157" viewBox="0 0 157 157" fill="none" xmlns="http://www.w3.org/2000/svg">
<g clip-path="url(#clip0_324_3150)">
<circle cx="78.8645" cy="78.4862" r="78.0467" fill="#CCA6FF"/>
<path d="M72.1107 70.0429C72.3482 70.0429 72.5761 70.1185 72.7441 70.2533C72.912 70.388 73.0064 70.5707 73.0064 70.7611V100.045C73.0064 100.236 72.912 100.418 72.7441 100.553C72.5761 100.688 72.3482 100.764 72.1107 100.764H69.1473C68.9097 100.764 68.6819 100.688 68.5139 100.553C68.3459 100.418 68.2515 100.236 68.2515 100.045V70.7635C68.2515 70.573 68.3459 70.3904 68.5139 70.2556C68.6819 70.1209 68.9097 70.0453 69.1473 70.0453L72.1107 70.0429ZM79.1766 70.0429C78.6067 70.0464 78.051 70.1852 77.5793 70.4416C77.1077 70.6981 76.7413 71.0608 76.5264 71.484C76.3114 71.9072 76.2575 72.372 76.3715 72.8197C76.4855 73.2674 76.7623 73.6781 77.1669 73.9999C77.5715 74.3216 78.0858 74.5402 78.6451 74.6279C79.2044 74.7156 79.7835 74.6685 80.3095 74.4927C80.8354 74.3169 81.2847 74.0201 81.6007 73.6398C81.9166 73.2595 82.085 72.8127 82.0848 72.3557C82.085 72.0503 82.0097 71.7479 81.8634 71.466C81.717 71.1841 81.5024 70.9282 81.232 70.7131C80.9616 70.4981 80.6407 70.3281 80.2879 70.2131C79.9351 70.098 79.5574 70.0402 79.1766 70.0429ZM118.479 81.6646C118.479 78.7496 122.092 77.1514 125.515 77.1514C129.407 77.1514 132.382 78.8274 132.382 82.2847V99.9758C132.382 100.166 132.288 100.349 132.12 100.484C131.952 100.618 131.724 100.694 131.486 100.694H129.134C128.896 100.694 128.668 100.618 128.5 100.484C128.332 100.349 128.238 100.166 128.238 99.9758V99.1857C127.393 100.315 125.612 100.785 123.994 100.785C120.261 100.785 118.061 99.3174 118.061 95.726V93.4431C118.061 91.8641 118.482 89.9642 119.984 88.8174C121.438 87.7077 122.914 87.3509 124.815 86.8613C127.182 86.2412 127.629 85.226 127.629 84.1725V79.5672C127.629 78.2504 126.714 77.8362 125.4 77.8362C124.086 77.8362 122.938 78.3821 122.938 79.8114V84.4634C122.938 84.6539 122.844 84.8366 122.676 84.9713C122.508 85.106 122.28 85.1817 122.042 85.1817H119.378C119.14 85.1817 118.912 85.106 118.744 84.9713C118.576 84.8366 118.482 84.6539 118.482 84.4634V81.6646H118.479ZM127.629 87.0516C126.972 87.2575 126.245 87.4838 125.612 87.6502C123.735 88.1769 122.892 88.9108 122.892 90.8094V97.8425C122.892 99.2719 123.805 99.9112 125.119 99.9112C126.433 99.9112 127.629 99.2156 127.629 97.7863V87.0516ZM77.7061 77.1514C77.4685 77.1514 77.2407 77.2271 77.0727 77.3618C76.9047 77.4965 76.8103 77.6792 76.8103 77.8697V100.045C76.8103 100.236 76.9047 100.418 77.0727 100.553C77.2407 100.688 77.4685 100.764 77.7061 100.764H80.671C80.9086 100.764 81.1364 100.688 81.3044 100.553C81.4724 100.418 81.5667 100.236 81.5667 100.045V77.8721C81.5667 77.6816 81.4724 77.4989 81.3044 77.3642C81.1364 77.2295 80.9086 77.1538 80.671 77.1538L77.7061 77.1514ZM24.2318 82.6043V100.045C24.2318 100.236 24.3261 100.418 24.4941 100.553C24.6621 100.688 24.8899 100.764 25.1275 100.764H28.0924C28.33 100.764 28.5578 100.688 28.7258 100.553C28.8938 100.418 28.9881 100.236 28.9881 100.045V79.8138C28.9881 78.3844 29.8092 77.8386 31.0991 77.8386C32.4114 77.8386 33.3504 78.3461 33.3504 79.754V100.045C33.3504 100.236 33.4448 100.418 33.6128 100.553C33.7808 100.688 34.0086 100.764 34.2462 100.764H37.2111C37.4486 100.764 37.6765 100.688 37.8444 100.553C38.0124 100.418 38.1068 100.236 38.1068 100.045V79.7923C38.1068 78.382 39.116 77.8362 40.4059 77.8362C41.7181 77.8362 42.4691 78.3821 42.4691 79.8114V100.043C42.4691 100.233 42.5634 100.416 42.7314 100.551C42.8994 100.685 43.1272 100.761 43.3648 100.761H46.3282C46.5658 100.761 46.7936 100.685 46.9616 100.551C47.1296 100.416 47.224 100.233 47.224 100.043V82.3409C47.224 78.3545 44.9249 77.1322 40.9851 77.1322C39.1802 77.1322 36.905 77.7153 35.9675 79.0321C35.1001 77.6781 32.919 77.1322 31.0902 77.1322C27.1638 77.1322 24.2318 78.6179 24.2318 82.6043ZM60.1809 79.8114C60.1809 78.3821 59.1254 77.8362 57.8116 77.8362C56.5218 77.8362 55.4663 78.3821 55.4663 79.8114V91.226C56.0395 90.7884 56.7291 90.4609 57.4832 90.2683C59.8062 89.6087 60.1809 88.5552 60.1809 87.4994V79.8114ZM64.8238 96.4598C64.355 99.3174 61.1423 100.769 57.5534 100.769C53.1448 100.769 50.7069 98.9642 50.7069 95.143V82.8677C50.7069 79.0692 53.9913 77.1514 57.9057 77.1514C61.8455 77.1514 64.9403 78.5245 64.9403 82.3409V85.0943C64.9403 86.1478 64.776 87.7639 63.2981 88.9491C61.844 90.1151 59.8972 90.6035 58.3267 90.9986C56.3098 91.5061 55.4648 92.4662 55.4648 93.5377V98.1059C55.4648 99.5353 56.5203 100.08 57.8101 100.08C59.1239 100.08 60.1794 99.5353 60.1794 98.1059V93.1342C60.1794 92.9437 60.2738 92.761 60.4417 92.6263C60.6097 92.4916 60.8376 92.416 61.0751 92.416H63.9699C64.2074 92.416 64.4353 92.4916 64.6033 92.6263C64.7712 92.761 64.8656 92.9437 64.8656 93.1342V95.9894C64.8716 96.1402 64.8253 96.4598 64.8253 96.4598H64.8238ZM99.2248 93.3473C99.2248 92.0496 98.9441 90.376 97.4662 89.3968C95.8956 88.3433 93.9713 87.6717 92.4948 87.1007C90.2838 86.246 89.7046 85.5445 89.7046 84.2049V79.8294C89.7046 78.3258 90.76 77.8362 92.0499 77.8362C93.3398 77.8362 94.4177 78.3821 94.4177 79.8114V84.3365C94.4177 84.527 94.512 84.7097 94.68 84.8444C94.848 84.9792 95.0758 85.0548 95.3134 85.0548H98.1006C98.3382 85.0548 98.566 84.9792 98.734 84.8444C98.902 84.7097 98.9964 84.527 98.9964 84.3365V81.6083C98.9964 78.637 95.8314 77.1514 92.3843 77.1514C88.1161 77.1514 84.9496 79.2009 84.9496 82.5672V84.2671C84.9496 85.3014 85.09 86.8242 86.4978 87.9531C87.9519 89.0999 90.0016 89.8457 91.5632 90.4551C93.4697 91.1985 94.4236 91.9108 94.4236 93.1438V98.1059C94.4236 99.6621 93.3681 100.08 92.0559 100.08C90.7436 100.08 89.7105 99.5353 89.7105 98.1059V93.1342C89.7105 92.9437 89.6162 92.761 89.4482 92.6263C89.2802 92.4916 89.0523 92.416 88.8148 92.416H85.938C85.7004 92.416 85.4726 92.4916 85.3046 92.6263C85.1366 92.761 85.0422 92.9437 85.0422 93.1342V95.9331C85.0361 96.1731 85.0516 96.4132 85.0885 96.6514C85.605 99.5245 88.0668 100.769 91.7722 100.769C96.5092 100.769 99.2293 98.5321 99.2293 95.0532L99.2248 93.3473ZM115.717 93.3473C115.717 92.0496 115.436 90.376 113.958 89.3968C112.388 88.3433 110.463 87.6717 108.987 87.1007C106.776 86.246 106.197 85.5445 106.197 84.2049V79.8294C106.197 78.3258 107.252 77.8362 108.542 77.8362C109.832 77.8362 110.91 78.3821 110.91 79.8114V84.3365C110.91 84.527 111.004 84.7097 111.172 84.8444C111.34 84.9792 111.568 85.0548 111.806 85.0548H114.581C114.818 85.0548 115.046 84.9792 115.214 84.8444C115.382 84.7097 115.477 84.527 115.477 84.3365V81.6083C115.477 78.637 112.312 77.1514 108.864 77.1514C104.596 77.1514 101.43 79.2009 101.43 82.5672V84.2671C101.43 85.3014 101.572 86.8242 102.978 87.9531C104.432 89.0999 106.482 89.8457 108.043 90.4551C109.95 91.1985 110.904 91.9108 110.904 93.1438V98.1059C110.904 99.6621 109.848 100.08 108.536 100.08C107.224 100.08 106.191 99.5353 106.191 98.1059V93.1342C106.191 92.9437 106.096 92.761 105.928 92.6263C105.76 92.4916 105.533 92.416 105.295 92.416H102.43C102.192 92.416 101.965 92.4916 101.797 92.6263C101.629 92.761 101.534 92.9437 101.534 93.1342V95.9331C101.528 96.1731 101.544 96.4132 101.582 96.6514C102.097 99.5245 104.559 100.769 108.264 100.769C113.001 100.769 115.729 98.5321 115.729 95.0532L115.717 93.3473Z" fill="white"/>
<path d="M26.8697 73.7659C26.9382 73.7659 27.0039 73.7441 27.0523 73.7053C27.1008 73.6664 27.128 73.6138 27.128 73.5588V63.3773C27.128 62.1802 28.1372 61.8881 28.9389 61.8881C29.8346 61.8881 30.5139 62.5513 30.5139 63.2133V73.5588C30.5137 73.5861 30.5202 73.6131 30.5331 73.6383C30.5461 73.6635 30.5651 73.6864 30.5891 73.7056C30.6131 73.7249 30.6417 73.7401 30.6731 73.7505C30.7045 73.7608 30.7382 73.7661 30.7722 73.7659H32.5636C32.5976 73.7661 32.6313 73.7608 32.6627 73.7505C32.6941 73.7401 32.7227 73.7249 32.7467 73.7056C32.7707 73.6864 32.7898 73.6635 32.8027 73.6383C32.8156 73.6131 32.8221 73.5861 32.8219 73.5588V63.2133C32.8219 62.5513 33.4982 61.8881 34.3969 61.8881C35.1986 61.8881 36.2093 62.1802 36.2093 63.3773V73.5588C36.2091 73.5861 36.2157 73.6131 36.2286 73.6383C36.2415 73.6635 36.2605 73.6864 36.2845 73.7056C36.3085 73.7249 36.3371 73.7401 36.3685 73.7505C36.4 73.7608 36.4336 73.7661 36.4676 73.7659H38.2591C38.3276 73.7659 38.3933 73.7441 38.4417 73.7053C38.4901 73.6664 38.5174 73.6138 38.5174 73.5588V63.9914C38.5174 62.0078 36.5945 61.1291 34.5567 61.1291C33.3624 61.1291 32.2576 61.6893 31.7873 62.3083C31.7485 62.3585 31.7112 62.4088 31.6754 62.4591C31.6395 62.4088 31.6007 62.3585 31.5619 62.3083C31.0916 61.6893 29.9585 61.1291 28.7926 61.1291C26.7025 61.1291 24.8334 62.0078 24.8334 63.9914V73.5588C24.8332 73.5861 24.8397 73.6131 24.8526 73.6383C24.8656 73.6635 24.8846 73.6864 24.9086 73.7056C24.9326 73.7249 24.9612 73.7401 24.9926 73.7505C25.024 73.7608 25.0577 73.7661 25.0917 73.7659H26.8697Z" fill="white"/>
<path d="M63.0861 61.3625H61.2991C61.1564 61.3625 61.0408 61.4553 61.0408 61.5696V73.5588C61.0408 73.6732 61.1564 73.7659 61.2991 73.7659H63.0861C63.2287 73.7659 63.3443 73.6732 63.3443 73.5588V61.5696C63.3443 61.4553 63.2287 61.3625 63.0861 61.3625Z" fill="white"/>
<path d="M62.1873 57.3019C61.2677 57.3019 60.7751 57.8071 60.7751 58.432C60.7751 59.0569 61.2498 59.5621 62.1873 59.5621C63.1249 59.5621 63.6131 59.0569 63.6131 58.432C63.6131 57.8071 63.1085 57.3019 62.1873 57.3019Z" fill="white"/>
<path d="M44.3546 61.3625H42.5676C42.425 61.3625 42.3093 61.4553 42.3093 61.5696V73.5588C42.3093 73.6732 42.425 73.7659 42.5676 73.7659H44.3546C44.4972 73.7659 44.6129 73.6732 44.6129 73.5588V61.5696C44.6129 61.4553 44.4972 61.3625 44.3546 61.3625Z" fill="white"/>
<path d="M43.4604 57.3019C42.5392 57.3019 42.0481 57.8071 42.0481 58.432C42.0481 59.0569 42.5213 59.5621 43.4604 59.5621C44.3994 59.5621 44.8846 59.0569 44.8846 58.432C44.8846 57.8071 44.377 57.3019 43.4604 57.3019Z" fill="white"/>
<path d="M52.8283 61.1423C50.3964 61.1423 48.4153 62.3537 48.4153 64.396V73.5588C48.4153 73.6138 48.4425 73.6664 48.491 73.7053C48.5394 73.7441 48.6051 73.7659 48.6736 73.7659H50.4651C50.4994 73.7661 50.5335 73.7607 50.5652 73.7502C50.5969 73.7396 50.6257 73.724 50.6497 73.7044C50.6738 73.6847 50.6928 73.6614 50.7054 73.6358C50.718 73.6102 50.7241 73.5828 50.7233 73.5552V63.5569C50.7233 62.4543 51.4444 61.8869 52.8328 61.8869C54.2212 61.8869 54.9408 62.4543 54.9408 63.5569V73.5624C54.9408 73.6174 54.968 73.67 55.0164 73.7089C55.0649 73.7477 55.1306 73.7695 55.1991 73.7695H56.9905C57.0249 73.7697 57.059 73.7643 57.0907 73.7538C57.1224 73.7432 57.1512 73.7276 57.1752 73.708C57.1993 73.6883 57.2182 73.665 57.2309 73.6394C57.2435 73.6138 57.2496 73.5864 57.2488 73.5588V64.3948C57.2399 62.3597 55.2543 61.1423 52.8283 61.1423Z" fill="white"/>
</g>
<defs>
<clipPath id="clip0_324_3150">
<rect width="156.093" height="156.093" fill="white" transform="translate(0.817749 0.439453)"/>
</clipPath>
</defs>
</svg>
