<svg width="157" height="157" viewBox="0 0 157 157" fill="none" xmlns="http://www.w3.org/2000/svg">
<g clip-path="url(#clip0_324_3152)">
<circle cx="78.6823" cy="78.4862" r="78.0467" fill="#CCA6FF"/>
<path d="M43.0019 62.5071C38.923 66.9195 36.3162 70.0788 34.3917 72.9723C32.0073 76.5417 30.4585 80.0883 29.8068 83.4527C29.5768 84.6526 29.5615 87.5461 29.7761 88.5258C30.1978 90.4244 31.0335 91.9281 32.4443 93.3255C33.9087 94.776 35.5801 95.6342 37.9569 96.1506C38.7007 96.3101 38.9383 96.3253 41.2155 96.3253C43.8683 96.3253 44.2593 96.2873 46.5518 95.8241C48.8672 95.3608 51.9341 94.4191 54.7096 93.3103C55.553 92.9762 65.6659 88.7005 77.1742 83.8172C88.6902 78.9416 104.776 72.1141 112.918 68.6586C121.068 65.2031 127.739 62.3552 127.739 62.3324C127.739 62.2717 128.068 62.1881 118.577 64.6943C114.743 65.7044 109.805 67.003 107.613 67.5802C100.375 69.4864 87.8698 72.7824 80.6627 74.681C54.4412 81.592 54.9396 81.4629 52.7161 81.7515C51.5201 81.9034 48.8672 81.9338 47.9625 81.7971C45.6854 81.4553 44.083 80.749 42.7489 79.496C40.9318 77.7872 40.0961 75.7139 40.0961 72.9495C40.0961 69.9573 41.1848 66.4183 43.2089 62.8337C43.5309 62.2641 43.7839 61.778 43.7609 61.7628C43.7456 61.7401 43.4006 62.0818 43.0019 62.5071Z" fill="white"/>
</g>
<defs>
<clipPath id="clip0_324_3152">
<rect width="156.093" height="156.093" fill="white" transform="translate(0.635559 0.439453)"/>
</clipPath>
</defs>
</svg>
