<svg width="380" height="240" viewBox="0 0 380 240" fill="none" xmlns="http://www.w3.org/2000/svg">
<rect width="380" height="240" fill="white"/>
<path d="M238.925 0H145.985C131.865 0 118.825 7.53 111.765 19.76L65.295 100.24C58.235 112.47 58.235 127.53 65.295 139.75L111.765 220.24C118.825 232.47 131.865 240 145.985 240H238.925C253.045 240 266.085 232.47 273.145 220.24L319.615 139.75C326.675 127.52 326.675 112.46 319.615 100.24L273.145 19.75C266.085 7.53 253.045 0 238.925 0Z" fill="#DC1150"/>
<mask id="mask0_291_3208" style="mask-type:alpha" maskUnits="userSpaceOnUse" x="60" y="0" width="265" height="240">
<path d="M238.925 0H145.985C131.865 0 118.825 7.53 111.765 19.76L65.295 100.24C58.235 112.47 58.235 127.53 65.295 139.75L111.765 220.24C118.825 232.47 131.865 240 145.985 240H238.925C253.045 240 266.085 232.47 273.145 220.24L319.615 139.75C326.675 127.52 326.675 112.46 319.615 100.24L273.145 19.75C266.085 7.53 253.045 0 238.925 0Z" fill="#DC1150"/>
</mask>
<g mask="url(#mask0_291_3208)">
<path d="M225.738 186.28L225.738 186.28C226.148 185.254 226.678 184.29 227.297 183.444C227.917 182.598 228.609 181.892 229.33 181.361C230.052 180.83 230.78 180.491 231.47 180.345C232.157 180.201 232.793 180.251 233.352 180.475L233.352 180.475L305.988 209.521L305.988 209.521C306.547 209.744 307.042 210.147 307.441 210.725C307.841 211.306 308.134 212.054 308.291 212.936C308.448 213.818 308.462 214.807 308.328 215.847C308.194 216.887 307.914 217.951 307.504 218.977L302.468 231.569C301.637 233.648 300.335 235.413 298.873 236.489C297.408 237.567 295.97 237.825 294.849 237.376L222.213 208.33C221.654 208.107 221.159 207.704 220.761 207.125C220.362 206.544 220.068 205.796 219.912 204.913C219.756 204.031 219.742 203.042 219.876 202.002C220.011 200.962 220.291 199.898 220.702 198.872L220.702 198.872L225.738 186.28Z" stroke="white"/>
</g>
<path d="M179.476 96.2393C178.59 96.2393 177.783 96.062 177.056 95.7075C176.347 95.3529 175.789 94.8743 175.381 94.2715C174.991 93.6688 174.796 92.9951 174.796 92.2505C174.796 91.2932 175.035 90.5398 175.514 89.9902C175.993 89.4406 176.799 89.0506 177.934 88.8202C179.069 88.572 180.593 88.4479 182.508 88.4479H183.758V89.9902H182.561C181.196 89.9902 180.114 90.0523 179.317 90.1764C178.537 90.3004 177.987 90.522 177.668 90.8412C177.349 91.1425 177.189 91.568 177.189 92.1176C177.189 92.809 177.429 93.3763 177.907 93.8195C178.404 94.2627 179.077 94.4843 179.928 94.4843C180.602 94.4843 181.196 94.3247 181.71 94.0056C182.224 93.6688 182.632 93.2256 182.933 92.676C183.235 92.1087 183.385 91.4616 183.385 90.7348V87.6767C183.385 86.6307 183.173 85.8773 182.747 85.4164C182.322 84.9377 181.604 84.6984 180.593 84.6984C180.008 84.6984 179.405 84.7782 178.785 84.9377C178.164 85.0973 177.517 85.3455 176.844 85.6823C176.578 85.8064 176.347 85.8507 176.152 85.8153C175.957 85.7621 175.798 85.6557 175.674 85.4962C175.567 85.3189 175.505 85.1327 175.487 84.9377C175.487 84.725 175.532 84.5211 175.62 84.3261C175.727 84.1311 175.904 83.9893 176.152 83.9006C176.932 83.5106 177.703 83.2358 178.466 83.0763C179.246 82.899 179.973 82.8104 180.646 82.8104C181.799 82.8104 182.747 82.9965 183.492 83.3688C184.236 83.7234 184.795 84.2818 185.167 85.0441C185.539 85.7887 185.725 86.746 185.725 87.916V94.9363C185.725 95.3441 185.628 95.6543 185.433 95.867C185.238 96.0798 184.954 96.1861 184.582 96.1861C184.227 96.1861 183.944 96.0798 183.731 95.867C183.536 95.6543 183.438 95.3441 183.438 94.9363V93.0483H183.678C183.536 93.7042 183.27 94.2715 182.88 94.7502C182.49 95.2288 182.002 95.6011 181.417 95.867C180.85 96.1152 180.203 96.2393 179.476 96.2393ZM194.905 96.2393C193.859 96.2393 192.982 96.0532 192.272 95.6809C191.581 95.3086 191.058 94.7679 190.703 94.0588C190.367 93.3497 190.198 92.481 190.198 91.4528V84.9111H188.496C188.177 84.9111 187.929 84.8314 187.752 84.6718C187.574 84.4945 187.486 84.2641 187.486 83.9804C187.486 83.679 187.574 83.4486 187.752 83.289C187.929 83.1295 188.177 83.0497 188.496 83.0497H190.198V80.1512C190.198 79.7434 190.305 79.442 190.517 79.247C190.73 79.0343 191.031 78.9279 191.421 78.9279C191.811 78.9279 192.104 79.0343 192.299 79.247C192.512 79.442 192.618 79.7434 192.618 80.1512V83.0497H195.836C196.173 83.0497 196.43 83.1295 196.607 83.289C196.784 83.4486 196.873 83.679 196.873 83.9804C196.873 84.2641 196.784 84.4945 196.607 84.6718C196.43 84.8314 196.173 84.9111 195.836 84.9111H192.618V91.24C192.618 92.2151 192.822 92.9508 193.23 93.4472C193.637 93.9436 194.311 94.1917 195.251 94.1917C195.588 94.1917 195.871 94.1652 196.102 94.112C196.332 94.0411 196.536 94.0056 196.713 94.0056C196.873 93.9879 197.006 94.0411 197.112 94.1652C197.236 94.2892 197.298 94.5197 197.298 94.8565C197.298 95.1047 197.254 95.3352 197.165 95.5479C197.094 95.7429 196.944 95.8759 196.713 95.9468C196.501 96.0177 196.217 96.0798 195.862 96.133C195.508 96.2039 195.189 96.2393 194.905 96.2393ZM204.917 96.2393C203.517 96.2393 202.311 95.9734 201.301 95.4416C200.308 94.892 199.537 94.1208 198.987 93.1281C198.438 92.1176 198.163 90.9298 198.163 89.5647C198.163 88.2174 198.429 87.0385 198.961 86.028C199.51 85.0175 200.255 84.2286 201.194 83.6613C202.152 83.094 203.242 82.8104 204.465 82.8104C205.334 82.8104 206.114 82.9611 206.805 83.2624C207.514 83.5461 208.117 83.9627 208.614 84.5123C209.11 85.0618 209.482 85.7355 209.73 86.5332C209.996 87.3133 210.129 88.1997 210.129 89.1924C210.129 89.4761 210.041 89.6977 209.863 89.8572C209.704 89.9991 209.465 90.07 209.145 90.07H200.051V88.5276H208.534L208.082 88.8999C208.082 87.9781 207.94 87.198 207.656 86.5598C207.39 85.9039 206.991 85.4075 206.46 85.0707C205.946 84.7339 205.298 84.5654 204.518 84.5654C203.667 84.5654 202.941 84.7693 202.338 85.1771C201.735 85.5671 201.274 86.1255 200.955 86.8524C200.636 87.5615 200.476 88.3858 200.476 89.3254V89.485C200.476 91.0805 200.858 92.286 201.62 93.1015C202.382 93.917 203.481 94.3247 204.917 94.3247C205.485 94.3247 206.061 94.2538 206.646 94.112C207.249 93.9701 207.825 93.7131 208.374 93.3408C208.64 93.1812 208.88 93.1103 209.092 93.1281C209.323 93.1281 209.509 93.199 209.651 93.3408C209.793 93.4649 209.881 93.6244 209.917 93.8195C209.952 93.9967 209.925 94.1917 209.837 94.4045C209.748 94.6172 209.58 94.8034 209.332 94.9629C208.747 95.3707 208.046 95.6898 207.231 95.9202C206.433 96.133 205.662 96.2393 204.917 96.2393ZM205.423 81.1883C205.281 81.3833 205.112 81.4985 204.917 81.5339C204.74 81.5694 204.563 81.5428 204.385 81.4542C204.208 81.3478 204.084 81.206 204.013 81.0287C203.942 80.8514 203.96 80.6475 204.066 80.4171L206.247 76.189C206.371 75.9053 206.539 75.728 206.752 75.6571C206.965 75.5685 207.178 75.5507 207.39 75.6039C207.621 75.6571 207.816 75.7635 207.975 75.923C208.135 76.0649 208.224 76.251 208.241 76.4815C208.277 76.6942 208.224 76.9158 208.082 77.1463L205.423 81.1883Z" fill="white"/>
<path d="M126.882 150.488C126.111 150.488 125.516 150.278 125.096 149.858C124.676 149.403 124.466 148.772 124.466 147.967V115.563C124.466 114.757 124.676 114.145 125.096 113.725C125.551 113.304 126.164 113.094 126.934 113.094H139.434C143.425 113.094 146.489 114.04 148.624 115.93C150.795 117.786 151.881 120.43 151.881 123.861C151.881 126.102 151.39 128.027 150.41 129.638C149.43 131.213 148.012 132.421 146.156 133.262C144.3 134.102 142.06 134.522 139.434 134.522L139.959 133.787H141.114C142.515 133.787 143.723 134.137 144.738 134.837C145.788 135.538 146.716 136.658 147.522 138.199L152.353 147.074C152.668 147.634 152.809 148.177 152.773 148.702C152.738 149.228 152.546 149.665 152.196 150.015C151.846 150.33 151.338 150.488 150.673 150.488C149.972 150.488 149.412 150.348 148.992 150.068C148.572 149.753 148.204 149.298 147.889 148.702L142.217 138.304C141.447 136.833 140.572 135.87 139.591 135.415C138.611 134.925 137.298 134.68 135.652 134.68H129.35V147.967C129.35 148.772 129.14 149.403 128.72 149.858C128.335 150.278 127.722 150.488 126.882 150.488ZM129.35 130.898H138.646C141.447 130.898 143.548 130.321 144.948 129.165C146.349 127.975 147.049 126.242 147.049 123.966C147.049 121.69 146.349 119.974 144.948 118.819C143.548 117.663 141.447 117.086 138.646 117.086H129.35V130.898ZM171.62 156.528C171.06 156.528 170.587 156.335 170.202 155.95C169.817 155.565 169.624 155.092 169.624 154.532V149.438L170.622 150.383C168.171 150.348 165.948 150.015 163.952 149.385C161.957 148.755 160.293 147.967 158.963 147.022C158.508 146.707 158.193 146.339 158.018 145.919C157.843 145.464 157.79 145.026 157.86 144.606C157.93 144.151 158.105 143.766 158.385 143.45C158.7 143.135 159.068 142.943 159.488 142.873C159.908 142.803 160.398 142.943 160.959 143.293C162.079 144.063 163.445 144.746 165.055 145.341C166.701 145.901 168.732 146.181 171.147 146.181C173.073 146.181 174.666 145.936 175.927 145.446C177.187 144.921 178.115 144.203 178.71 143.293C179.34 142.383 179.656 141.35 179.656 140.194C179.656 139.214 179.428 138.374 178.973 137.673C178.553 136.973 177.87 136.378 176.925 135.888C175.979 135.397 174.719 134.995 173.143 134.68L167.786 133.524C164.635 132.824 162.272 131.686 160.696 130.111C159.156 128.5 158.385 126.382 158.385 123.756C158.385 121.725 158.875 119.904 159.856 118.294C160.871 116.683 162.272 115.405 164.057 114.46C165.878 113.514 167.979 112.989 170.36 112.884L169.624 113.62V108.683C169.624 108.122 169.817 107.65 170.202 107.265C170.587 106.88 171.06 106.687 171.62 106.687C172.18 106.687 172.653 106.88 173.038 107.265C173.423 107.65 173.616 108.122 173.616 108.683V113.62L172.776 112.884C174.421 112.919 176.154 113.269 177.975 113.935C179.796 114.565 181.354 115.458 182.649 116.613C183.034 116.928 183.279 117.296 183.384 117.716C183.524 118.136 183.524 118.539 183.384 118.924C183.279 119.309 183.069 119.624 182.754 119.869C182.474 120.114 182.106 120.254 181.651 120.289C181.231 120.289 180.758 120.114 180.233 119.764C179.078 118.924 177.8 118.259 176.399 117.769C175.034 117.278 173.388 117.033 171.463 117.033C168.942 117.033 166.928 117.646 165.423 118.871C163.952 120.062 163.217 121.637 163.217 123.598C163.217 125.139 163.672 126.364 164.583 127.275C165.528 128.15 167.051 128.815 169.152 129.27L174.614 130.478C177.975 131.178 180.461 132.299 182.071 133.839C183.682 135.345 184.487 137.376 184.487 139.932C184.487 141.927 183.98 143.678 182.964 145.184C181.984 146.689 180.601 147.88 178.815 148.755C177.065 149.63 175.034 150.155 172.723 150.33L173.616 149.385V154.532C173.616 155.092 173.423 155.565 173.038 155.95C172.688 156.335 172.215 156.528 171.62 156.528ZM202.638 150.698C200.853 150.698 199.015 150.47 197.124 150.015C195.233 149.56 193.5 148.877 191.925 147.967C191.119 147.512 190.559 146.952 190.244 146.286C189.964 145.621 189.876 144.938 189.981 144.238C190.121 143.538 190.401 142.943 190.822 142.453C191.277 141.927 191.837 141.595 192.502 141.455C193.202 141.315 193.973 141.472 194.813 141.927C196.039 142.558 197.281 143.048 198.542 143.398C199.837 143.748 201.15 143.923 202.481 143.923C203.811 143.923 204.949 143.696 205.895 143.24C206.84 142.785 207.558 142.155 208.048 141.35C208.538 140.544 208.783 139.599 208.783 138.514C208.783 136.833 208.24 135.485 207.155 134.47C206.105 133.454 204.669 132.947 202.849 132.947C201.938 132.947 201.01 133.104 200.065 133.419C199.155 133.699 198.209 134.207 197.229 134.942C196.879 135.222 196.424 135.485 195.863 135.73C195.303 135.975 194.708 136.098 194.078 136.098C192.992 136.098 192.187 135.853 191.662 135.362C191.137 134.837 190.874 134.084 190.874 133.104V116.613C190.874 115.458 191.172 114.582 191.767 113.987C192.397 113.392 193.273 113.094 194.393 113.094H211.252C212.407 113.094 213.282 113.392 213.878 113.987C214.473 114.547 214.77 115.37 214.77 116.456C214.77 117.506 214.473 118.329 213.878 118.924C213.282 119.484 212.407 119.764 211.252 119.764H198.699V129.795H196.704C197.579 128.71 198.735 127.87 200.17 127.275C201.606 126.679 203.181 126.382 204.897 126.382C207.243 126.382 209.291 126.889 211.042 127.905C212.792 128.885 214.158 130.268 215.138 132.054C216.118 133.839 216.609 135.905 216.609 138.251C216.609 140.702 216.048 142.873 214.928 144.763C213.808 146.619 212.197 148.072 210.096 149.122C207.995 150.173 205.509 150.698 202.638 150.698ZM231.031 150.698C229.525 150.698 228.002 150.488 226.462 150.068C224.921 149.648 223.486 149.017 222.155 148.177C221.455 147.827 220.965 147.337 220.685 146.707C220.439 146.041 220.369 145.376 220.474 144.711C220.579 144.046 220.842 143.468 221.262 142.978C221.682 142.453 222.208 142.12 222.838 141.98C223.503 141.805 224.256 141.91 225.096 142.295C226.182 142.89 227.214 143.31 228.195 143.555C229.21 143.801 230.19 143.923 231.136 143.923C232.992 143.923 234.567 143.503 235.863 142.663C237.158 141.822 238.121 140.562 238.751 138.881C239.416 137.166 239.749 135.082 239.749 132.631V129.218H240.484C240.204 130.863 239.626 132.281 238.751 133.472C237.876 134.662 236.773 135.573 235.442 136.203C234.112 136.833 232.641 137.148 231.031 137.148C228.965 137.148 227.109 136.64 225.464 135.625C223.818 134.575 222.523 133.139 221.577 131.318C220.632 129.498 220.159 127.45 220.159 125.174C220.159 122.723 220.685 120.552 221.735 118.661C222.785 116.736 224.256 115.23 226.147 114.145C228.037 113.059 230.208 112.517 232.659 112.517C235.845 112.517 238.524 113.252 240.694 114.722C242.9 116.158 244.581 118.276 245.736 121.077C246.892 123.843 247.469 127.187 247.469 131.108C247.469 134.225 247.084 136.991 246.314 139.406C245.579 141.822 244.511 143.871 243.11 145.551C241.71 147.232 239.977 148.51 237.911 149.385C235.88 150.26 233.587 150.698 231.031 150.698ZM233.132 130.793C234.217 130.793 235.162 130.548 235.968 130.058C236.808 129.533 237.456 128.815 237.911 127.905C238.366 126.994 238.594 125.962 238.594 124.806C238.594 123.616 238.366 122.565 237.911 121.655C237.456 120.745 236.808 120.044 235.968 119.554C235.162 119.064 234.217 118.819 233.132 118.819C232.046 118.819 231.101 119.064 230.296 119.554C229.49 120.044 228.843 120.745 228.352 121.655C227.897 122.565 227.67 123.616 227.67 124.806C227.67 125.962 227.897 126.994 228.352 127.905C228.843 128.815 229.49 129.533 230.296 130.058C231.101 130.548 232.046 130.793 233.132 130.793ZM253.846 121.524C253.573 121.377 253.415 121.167 253.373 120.894C253.352 120.621 253.436 120.327 253.625 120.012L255.831 116.545L256.177 117.049L252.049 117.207C251.671 117.207 251.367 117.134 251.136 116.986C250.926 116.818 250.821 116.577 250.821 116.262C250.821 115.968 250.926 115.747 251.136 115.6C251.367 115.432 251.671 115.358 252.049 115.379L256.177 115.537L255.831 116.01L253.657 112.512C253.446 112.197 253.362 111.903 253.404 111.629C253.446 111.356 253.594 111.146 253.846 110.999C254.098 110.852 254.35 110.842 254.602 110.968C254.875 111.094 255.096 111.325 255.264 111.661L257.06 115.127H256.745L258.541 111.661C258.73 111.325 258.951 111.094 259.203 110.968C259.476 110.842 259.738 110.852 259.99 110.999C260.242 111.167 260.379 111.388 260.4 111.661C260.442 111.934 260.358 112.228 260.148 112.543L257.974 116.01L257.627 115.537L261.755 115.379C262.133 115.358 262.427 115.432 262.637 115.6C262.868 115.747 262.984 115.968 262.984 116.262C262.984 116.577 262.868 116.818 262.637 116.986C262.427 117.134 262.133 117.207 261.755 117.207L257.627 117.049L257.974 116.545L260.148 120.012C260.358 120.327 260.442 120.621 260.4 120.894C260.379 121.146 260.242 121.346 259.99 121.493C259.717 121.661 259.444 121.682 259.171 121.556C258.919 121.43 258.709 121.209 258.541 120.894L256.745 117.428H257.06L255.232 120.894C255.064 121.23 254.854 121.461 254.602 121.587C254.35 121.713 254.098 121.692 253.846 121.524Z" fill="white"/>
</svg>
