<svg width="380" height="240" viewBox="0 0 380 240" fill="none" xmlns="http://www.w3.org/2000/svg">
<rect width="380" height="240" fill="white"/>
<path d="M189.99 0C256.22 0 309.99 53.77 309.99 120V223.31C309.99 232.52 302.51 240 293.3 240H86.69C77.48 240 70 232.52 70 223.31V120C70 53.77 123.77 0 190 0H189.99Z" fill="#DC1150"/>
<mask id="mask0_291_3837" style="mask-type:alpha" maskUnits="userSpaceOnUse" x="70" y="0" width="240" height="240">
<path d="M189.99 0C256.22 0 309.99 53.77 309.99 120V223.31C309.99 232.52 302.51 240 293.3 240H86.69C77.48 240 70 232.52 70 223.31V120C70 53.77 123.77 0 190 0H189.99Z" fill="#DC1150"/>
</mask>
<g mask="url(#mask0_291_3837)">
<path d="M140.211 273.219L157.104 273.196C159.605 273.201 162.031 272.327 163.956 270.725C165.882 269.124 167.184 266.897 167.636 264.436M140.211 273.219L140.211 272.719M140.211 273.219C138.679 273.22 137.165 272.893 135.771 272.259C134.378 271.625 133.137 270.7 132.133 269.545C131.129 268.391 130.385 267.034 129.95 265.565C129.515 264.097 129.4 262.552 129.613 261.034C132.3 241.995 141.115 224.334 154.725 210.724C168.334 197.115 185.996 188.299 205.035 185.613C206.553 185.4 208.098 185.515 209.566 185.949C211.034 186.384 212.391 187.129 213.546 188.133C214.701 189.137 215.626 190.378 216.26 191.771C216.894 193.164 217.221 194.678 217.22 196.21M140.211 273.219L140.21 272.719M140.211 272.719L157.103 272.696L157.105 272.696C159.489 272.701 161.801 271.867 163.636 270.341C165.472 268.814 166.713 266.692 167.144 264.347M140.211 272.719L140.21 272.719M140.211 272.719C140.211 272.719 140.21 272.719 140.21 272.719M167.144 264.347C167.144 264.347 167.144 264.348 167.144 264.348L167.636 264.436M167.144 264.347C167.144 264.347 167.144 264.346 167.144 264.346L167.636 264.436M167.144 264.347C168.986 254.101 173.923 244.658 181.291 237.29C188.658 229.923 198.101 224.985 208.347 223.144M167.636 264.436C169.459 254.29 174.348 244.939 181.644 237.644C188.94 230.348 198.291 225.459 208.437 223.636M208.437 223.636L208.346 223.144C208.346 223.144 208.347 223.144 208.347 223.144M208.437 223.636C210.895 223.181 213.117 221.877 214.715 219.953C216.314 218.028 217.187 215.605 217.181 213.107L217.22 196.21M208.437 223.636L208.348 223.143C208.348 223.144 208.347 223.144 208.347 223.144M208.347 223.144C210.689 222.71 212.807 221.467 214.331 219.633C215.854 217.798 216.686 215.489 216.681 213.108L216.681 213.105L216.72 196.21L217.22 196.21M217.22 196.21L216.72 196.209L216.72 196.21C216.721 194.749 216.409 193.306 215.805 191.978C215.2 190.65 214.318 189.467 213.218 188.51C212.117 187.553 210.824 186.843 209.424 186.429C208.024 186.014 206.551 185.905 205.104 186.108C186.173 188.779 168.611 197.545 155.078 211.078C141.546 224.61 132.78 242.172 130.108 261.103C129.906 262.551 130.015 264.024 130.429 265.424C130.844 266.823 131.553 268.117 132.511 269.217C133.468 270.318 134.65 271.2 135.978 271.804C137.307 272.408 138.75 272.72 140.21 272.719" stroke="white"/>
<path d="M244.211 62.2195L261.104 62.1961C263.605 62.2013 266.031 61.3266 267.956 59.7251C269.882 58.1236 271.184 55.8974 271.636 53.4363M244.211 62.2195L244.211 61.7195M244.211 62.2195C242.679 62.2204 241.165 61.893 239.771 61.2592C238.378 60.6255 237.137 59.7001 236.133 58.5454C235.129 57.3908 234.385 56.0336 233.95 54.5655C233.515 53.0973 233.4 51.5521 233.613 50.034C236.3 30.9953 245.115 13.3335 258.725 -0.275878C272.334 -13.8853 289.996 -22.7008 309.035 -25.3872C310.553 -25.6001 312.098 -25.4853 313.566 -25.0507C315.034 -24.616 316.391 -23.8715 317.546 -22.8673C318.701 -21.8631 319.626 -20.6225 320.26 -19.2291C320.894 -17.8357 321.221 -16.3219 321.22 -14.7895M244.211 62.2195L244.21 61.7195M244.211 61.7195L261.103 61.6961L261.105 61.6961C263.489 61.7011 265.801 60.8674 267.636 59.3407C269.472 57.8142 270.713 55.6924 271.144 53.3469M244.211 61.7195L244.21 61.7195M244.211 61.7195C244.211 61.7195 244.21 61.7195 244.21 61.7195M271.144 53.3469C271.144 53.3472 271.144 53.3475 271.144 53.3478L271.636 53.4363M271.144 53.3469C271.144 53.3466 271.144 53.3463 271.144 53.346L271.636 53.4363M271.144 53.3469C272.986 43.1009 277.923 33.6575 285.291 26.29C292.658 18.9226 302.101 13.9852 312.347 12.1437M271.636 53.4363C273.459 43.2905 278.348 33.9392 285.644 26.6436C292.94 19.3479 302.291 14.4588 312.437 12.6355M312.437 12.6355L312.346 12.1439C312.346 12.1438 312.347 12.1437 312.347 12.1437M312.437 12.6355C314.895 12.1807 317.117 10.8771 318.715 8.95251C320.314 7.02796 321.187 4.60484 321.181 2.10652L321.22 -14.7895M312.437 12.6355L312.348 12.1434C312.348 12.1435 312.347 12.1436 312.347 12.1437M312.347 12.1437C314.689 11.7099 316.807 10.4674 318.331 8.63306C319.854 6.79841 320.686 4.48866 320.681 2.10754L320.681 2.10537L320.72 -14.7898L321.22 -14.7895M321.22 -14.7895L320.72 -14.7907L320.72 -14.7902C320.721 -16.251 320.409 -17.694 319.805 -19.0221C319.2 -20.3503 318.318 -21.5328 317.218 -22.49C316.117 -23.4472 314.824 -24.1569 313.424 -24.5712C312.024 -24.9856 310.551 -25.095 309.104 -24.892C290.173 -22.2208 272.611 -13.455 259.078 0.0776754C245.546 13.6104 236.78 31.1724 234.108 50.1035C233.906 51.5508 234.015 53.0239 234.429 54.4235C234.844 55.8231 235.553 57.1167 236.511 58.2173C237.468 59.3179 238.65 60.2 239.978 60.8041C241.307 61.4082 242.75 61.7203 244.21 61.7195" stroke="white"/>
</g>
<path d="M170.438 95.122C170.136 95.122 169.906 95.0422 169.746 94.8826C169.587 94.7054 169.507 94.466 169.507 94.1647V89.2717H164.694C164.393 89.2717 164.162 89.192 164.003 89.0324C163.843 88.8729 163.763 88.6513 163.763 88.3676C163.763 88.084 163.843 87.8624 164.003 87.7028C164.162 87.5433 164.393 87.4635 164.694 87.4635H169.507V82.7301C169.507 82.411 169.587 82.1717 169.746 82.0121C169.906 81.8526 170.145 81.7728 170.464 81.7728C170.766 81.7728 170.987 81.8526 171.129 82.0121C171.289 82.1717 171.369 82.411 171.369 82.7301V87.4635H176.182C176.483 87.4635 176.714 87.5433 176.873 87.7028C177.033 87.8624 177.112 88.084 177.112 88.3676C177.112 88.6513 177.033 88.8729 176.873 89.0324C176.714 89.192 176.483 89.2717 176.182 89.2717H171.369V94.1647C171.369 94.466 171.289 94.7054 171.129 94.8826C170.987 95.0422 170.757 95.122 170.438 95.122ZM192.226 96.2388C191.091 96.2388 190.09 95.9729 189.221 95.4411C188.37 94.8915 187.705 94.1115 187.227 93.101C186.748 92.0728 186.509 90.8761 186.509 89.5111C186.509 88.1283 186.739 86.9405 187.2 85.9477C187.679 84.9372 188.344 84.1661 189.195 83.6342C190.063 83.0847 191.074 82.8099 192.226 82.8099C193.378 82.8099 194.371 83.1024 195.204 83.6874C196.038 84.2547 196.596 85.017 196.88 85.9743H196.587V78.2892C196.587 77.8815 196.685 77.5801 196.88 77.3851C197.092 77.1724 197.394 77.066 197.784 77.066C198.174 77.066 198.475 77.1724 198.688 77.3851C198.901 77.5801 199.007 77.8815 199.007 78.2892V94.9358C199.007 95.3436 198.901 95.6538 198.688 95.8666C198.475 96.0793 198.174 96.1857 197.784 96.1857C197.411 96.1857 197.119 96.0793 196.906 95.8666C196.693 95.6538 196.587 95.3436 196.587 94.9358V92.516L196.88 92.9946C196.614 93.9874 196.055 94.7763 195.204 95.3613C194.371 95.9463 193.378 96.2388 192.226 96.2388ZM192.784 94.3242C193.565 94.3242 194.238 94.1381 194.805 93.7658C195.39 93.3935 195.834 92.8528 196.135 92.1437C196.454 91.4346 196.614 90.557 196.614 89.5111C196.614 87.951 196.268 86.7632 195.577 85.9477C194.885 85.1322 193.955 84.7245 192.784 84.7245C192.022 84.7245 191.349 84.9106 190.763 85.2829C190.196 85.6375 189.753 86.1693 189.434 86.8785C189.115 87.5876 188.955 88.4651 188.955 89.5111C188.955 91.0711 189.301 92.2678 189.992 93.101C190.701 93.9165 191.632 94.3242 192.784 94.3242ZM208.87 96.2388C207.47 96.2388 206.264 95.9729 205.254 95.4411C204.261 94.8915 203.49 94.1203 202.94 93.1276C202.391 92.1171 202.116 90.9293 202.116 89.5642C202.116 88.2169 202.382 87.038 202.914 86.0275C203.463 85.017 204.208 84.2281 205.147 83.6608C206.105 83.0935 207.195 82.8099 208.418 82.8099C209.287 82.8099 210.067 82.9606 210.758 83.2619C211.468 83.5456 212.07 83.9622 212.567 84.5118C213.063 85.0613 213.435 85.735 213.684 86.5328C213.949 87.3128 214.082 88.1992 214.082 89.192C214.082 89.4756 213.994 89.6972 213.816 89.8568C213.657 89.9986 213.418 90.0695 213.098 90.0695H204.004V88.5272H212.487L212.035 88.8994C212.035 87.9776 211.893 87.1976 211.609 86.5593C211.343 85.9034 210.945 85.407 210.413 85.0702C209.899 84.7334 209.252 84.5649 208.471 84.5649C207.621 84.5649 206.894 84.7688 206.291 85.1766C205.688 85.5666 205.227 86.125 204.908 86.8519C204.589 87.561 204.429 88.3853 204.429 89.3249V89.4845C204.429 91.08 204.811 92.2855 205.573 93.101C206.335 93.9165 207.434 94.3242 208.87 94.3242C209.438 94.3242 210.014 94.2533 210.599 94.1115C211.202 93.9697 211.778 93.7126 212.327 93.3403C212.593 93.1808 212.833 93.1098 213.045 93.1276C213.276 93.1276 213.462 93.1985 213.604 93.3403C213.746 93.4644 213.834 93.624 213.87 93.819C213.905 93.9962 213.879 94.1913 213.79 94.404C213.701 94.6167 213.533 94.8029 213.285 94.9624C212.7 95.3702 211.999 95.6893 211.184 95.9197C210.386 96.1325 209.615 96.2388 208.87 96.2388Z" fill="white"/>
<path d="M107.136 150.488C106.366 150.488 105.771 150.277 105.35 149.857C104.93 149.402 104.72 148.772 104.72 147.967V115.562C104.72 114.757 104.93 114.144 105.35 113.724C105.806 113.304 106.418 113.094 107.189 113.094H119.688C123.68 113.094 126.743 114.039 128.879 115.93C131.05 117.786 132.135 120.429 132.135 123.86C132.135 126.101 131.645 128.027 130.665 129.637C129.684 131.213 128.266 132.421 126.411 133.261C124.555 134.102 122.314 134.522 119.688 134.522L120.213 133.786H121.369C122.769 133.786 123.977 134.137 124.993 134.837C126.043 135.537 126.971 136.657 127.776 138.198L132.608 147.074C132.923 147.634 133.063 148.177 133.028 148.702C132.993 149.227 132.8 149.665 132.45 150.015C132.1 150.33 131.592 150.488 130.927 150.488C130.227 150.488 129.667 150.347 129.247 150.067C128.826 149.752 128.459 149.297 128.144 148.702L122.472 138.303C121.701 136.833 120.826 135.87 119.846 135.414C118.865 134.924 117.552 134.679 115.907 134.679H109.604V147.967C109.604 148.772 109.394 149.402 108.974 149.857C108.589 150.277 107.976 150.488 107.136 150.488ZM109.604 130.898H118.9C121.701 130.898 123.802 130.32 125.203 129.165C126.603 127.974 127.303 126.241 127.303 123.965C127.303 121.689 126.603 119.974 125.203 118.818C123.802 117.663 121.701 117.085 118.9 117.085H109.604V130.898ZM151.875 156.527C151.314 156.527 150.842 156.335 150.457 155.95C150.071 155.564 149.879 155.092 149.879 154.531V149.437L150.877 150.382C148.426 150.347 146.203 150.015 144.207 149.385C142.211 148.754 140.548 147.967 139.217 147.021C138.762 146.706 138.447 146.338 138.272 145.918C138.097 145.463 138.045 145.026 138.115 144.605C138.185 144.15 138.36 143.765 138.64 143.45C138.955 143.135 139.322 142.942 139.743 142.872C140.163 142.802 140.653 142.942 141.213 143.292C142.334 144.063 143.699 144.745 145.31 145.341C146.955 145.901 148.986 146.181 151.402 146.181C153.328 146.181 154.921 145.936 156.181 145.446C157.442 144.92 158.369 144.203 158.965 143.292C159.595 142.382 159.91 141.349 159.91 140.194C159.91 139.213 159.682 138.373 159.227 137.673C158.807 136.973 158.124 136.377 157.179 135.887C156.234 135.397 154.973 134.994 153.398 134.679L148.041 133.524C144.89 132.824 142.526 131.686 140.951 130.11C139.41 128.499 138.64 126.381 138.64 123.755C138.64 121.724 139.13 119.904 140.11 118.293C141.126 116.683 142.526 115.405 144.312 114.459C146.132 113.514 148.233 112.989 150.614 112.884L149.879 113.619V108.682C149.879 108.122 150.071 107.649 150.457 107.264C150.842 106.879 151.314 106.686 151.875 106.686C152.435 106.686 152.907 106.879 153.293 107.264C153.678 107.649 153.87 108.122 153.87 108.682V113.619L153.03 112.884C154.676 112.919 156.409 113.269 158.229 113.934C160.05 114.564 161.608 115.457 162.904 116.613C163.289 116.928 163.534 117.295 163.639 117.716C163.779 118.136 163.779 118.538 163.639 118.923C163.534 119.309 163.324 119.624 163.009 119.869C162.729 120.114 162.361 120.254 161.906 120.289C161.486 120.289 161.013 120.114 160.488 119.764C159.332 118.923 158.054 118.258 156.654 117.768C155.288 117.278 153.643 117.033 151.717 117.033C149.196 117.033 147.183 117.645 145.677 118.871C144.207 120.061 143.472 121.637 143.472 123.598C143.472 125.138 143.927 126.364 144.837 127.274C145.782 128.149 147.305 128.815 149.406 129.27L154.868 130.478C158.229 131.178 160.715 132.298 162.326 133.839C163.936 135.344 164.742 137.375 164.742 139.931C164.742 141.927 164.234 143.678 163.219 145.183C162.238 146.689 160.855 147.879 159.07 148.754C157.319 149.63 155.288 150.155 152.977 150.33L153.87 149.385V154.531C153.87 155.092 153.678 155.564 153.293 155.95C152.942 156.335 152.47 156.527 151.875 156.527ZM175.33 150.12C174.21 150.12 173.352 149.822 172.757 149.227C172.161 148.632 171.864 147.809 171.864 146.759C171.864 145.673 172.161 144.85 172.757 144.29C173.352 143.73 174.21 143.45 175.33 143.45H180.635V119.764H184.468L176.801 124.438C175.995 124.928 175.243 125.121 174.542 125.016C173.877 124.911 173.299 124.613 172.809 124.123C172.319 123.633 171.986 123.055 171.811 122.39C171.671 121.689 171.741 121.007 172.021 120.341C172.302 119.641 172.827 119.046 173.597 118.556L180.897 114.144C181.632 113.689 182.368 113.321 183.103 113.041C183.873 112.761 184.626 112.621 185.361 112.621C186.412 112.621 187.235 112.901 187.83 113.461C188.46 113.987 188.775 114.809 188.775 115.93V143.45H193.554C194.64 143.45 195.48 143.73 196.075 144.29C196.67 144.85 196.968 145.673 196.968 146.759C196.968 147.844 196.67 148.684 196.075 149.28C195.48 149.84 194.64 150.12 193.554 150.12H175.33ZM214.331 150.698C209.85 150.698 206.419 149.034 204.038 145.708C201.692 142.347 200.519 137.603 200.519 131.476C200.519 127.379 201.044 123.93 202.094 121.129C203.18 118.293 204.738 116.157 206.769 114.722C208.834 113.251 211.355 112.516 214.331 112.516C218.848 112.516 222.279 114.144 224.625 117.4C226.971 120.622 228.144 125.313 228.144 131.476C228.144 135.572 227.601 139.056 226.516 141.927C225.465 144.763 223.925 146.934 221.894 148.439C219.863 149.945 217.343 150.698 214.331 150.698ZM214.331 144.08C216.362 144.08 217.868 143.082 218.848 141.087C219.828 139.056 220.319 135.852 220.319 131.476C220.319 127.099 219.828 123.948 218.848 122.022C217.868 120.096 216.362 119.134 214.331 119.134C212.301 119.134 210.795 120.096 209.815 122.022C208.834 123.948 208.344 127.099 208.344 131.476C208.344 135.852 208.834 139.056 209.815 141.087C210.795 143.082 212.301 144.08 214.331 144.08ZM242.776 150.698C241.271 150.698 239.748 150.488 238.207 150.067C236.667 149.647 235.231 149.017 233.901 148.177C233.2 147.827 232.71 147.336 232.43 146.706C232.185 146.041 232.115 145.376 232.22 144.71C232.325 144.045 232.588 143.467 233.008 142.977C233.428 142.452 233.953 142.119 234.583 141.979C235.249 141.804 236.001 141.909 236.842 142.295C237.927 142.89 238.96 143.31 239.94 143.555C240.956 143.8 241.936 143.923 242.881 143.923C244.737 143.923 246.313 143.502 247.608 142.662C248.904 141.822 249.866 140.561 250.497 138.881C251.162 137.165 251.494 135.082 251.494 132.631V129.217H252.23C251.95 130.863 251.372 132.281 250.497 133.471C249.621 134.662 248.518 135.572 247.188 136.202C245.857 136.833 244.387 137.148 242.776 137.148C240.711 137.148 238.855 136.64 237.209 135.625C235.564 134.574 234.268 133.139 233.323 131.318C232.377 129.497 231.905 127.449 231.905 125.173C231.905 122.722 232.43 120.552 233.48 118.661C234.531 116.735 236.001 115.23 237.892 114.144C239.783 113.059 241.953 112.516 244.404 112.516C247.591 112.516 250.269 113.251 252.44 114.722C254.646 116.157 256.326 118.276 257.482 121.077C258.637 123.843 259.215 127.186 259.215 131.108C259.215 134.224 258.83 136.99 258.059 139.406C257.324 141.822 256.256 143.87 254.856 145.551C253.455 147.231 251.722 148.509 249.656 149.385C247.626 150.26 245.332 150.698 242.776 150.698ZM244.877 130.793C245.962 130.793 246.908 130.548 247.713 130.058C248.553 129.532 249.201 128.815 249.656 127.904C250.111 126.994 250.339 125.961 250.339 124.806C250.339 123.615 250.111 122.565 249.656 121.654C249.201 120.744 248.553 120.044 247.713 119.554C246.908 119.064 245.962 118.818 244.877 118.818C243.792 118.818 242.846 119.064 242.041 119.554C241.236 120.044 240.588 120.744 240.098 121.654C239.643 122.565 239.415 123.615 239.415 124.806C239.415 125.961 239.643 126.994 240.098 127.904C240.588 128.815 241.236 129.532 242.041 130.058C242.846 130.548 243.792 130.793 244.877 130.793ZM265.591 121.524C265.318 121.377 265.16 121.167 265.118 120.893C265.097 120.62 265.181 120.326 265.371 120.011L267.576 116.545L267.923 117.049L263.795 117.207C263.417 117.207 263.112 117.133 262.881 116.986C262.671 116.818 262.566 116.576 262.566 116.261C262.566 115.967 262.671 115.747 262.881 115.599C263.112 115.431 263.417 115.358 263.795 115.379L267.923 115.536L267.576 116.009L265.402 112.511C265.192 112.196 265.108 111.902 265.15 111.629C265.192 111.356 265.339 111.146 265.591 110.999C265.843 110.852 266.095 110.841 266.347 110.967C266.621 111.093 266.841 111.324 267.009 111.661L268.805 115.127H268.49L270.286 111.661C270.475 111.324 270.696 111.093 270.948 110.967C271.221 110.841 271.484 110.852 271.736 110.999C271.988 111.167 272.125 111.387 272.146 111.661C272.188 111.934 272.104 112.228 271.893 112.543L269.719 116.009L269.373 115.536L273.501 115.379C273.879 115.358 274.173 115.431 274.383 115.599C274.614 115.747 274.729 115.967 274.729 116.261C274.729 116.576 274.614 116.818 274.383 116.986C274.173 117.133 273.879 117.207 273.501 117.207L269.373 117.049L269.719 116.545L271.893 120.011C272.104 120.326 272.188 120.62 272.146 120.893C272.125 121.145 271.988 121.345 271.736 121.492C271.463 121.66 271.19 121.681 270.917 121.555C270.664 121.429 270.454 121.209 270.286 120.893L268.49 117.427H268.805L266.978 120.893C266.81 121.23 266.6 121.461 266.347 121.587C266.095 121.713 265.843 121.692 265.591 121.524Z" fill="white"/>
</svg>
