<svg width="380" height="240" viewBox="0 0 380 240" fill="none" xmlns="http://www.w3.org/2000/svg">
<g clip-path="url(#clip0_306_3070)">
<rect width="380" height="240" fill="white"/>
<path d="M171.268 12.4365C178.349 -3.26918 200.651 -3.26915 207.732 12.4365L229.355 60.3914C232.294 66.9107 238.491 71.3643 245.607 72.0723L298.132 77.2982C315.551 79.0312 322.496 100.724 309.322 112.251L270.587 146.146C265.09 150.956 262.652 158.379 264.228 165.511L275.303 215.658C279.041 232.585 260.943 245.928 245.878 237.351L199.395 210.887C193.261 207.394 185.739 207.394 179.605 210.887L133.122 237.351C118.057 245.928 99.9587 232.585 103.697 215.658L114.772 165.511C116.348 158.379 113.91 150.956 108.413 146.146L69.6777 112.251C56.5039 100.724 63.4488 79.0312 80.868 77.2982L133.393 72.0724C140.509 71.3643 146.706 66.9106 149.645 60.3914L171.268 12.4365Z" fill="#DC1150"/>
<path d="M177.476 96.2393C176.59 96.2393 175.783 96.062 175.056 95.7075C174.347 95.3529 173.789 94.8743 173.381 94.2715C172.991 93.6688 172.796 92.9951 172.796 92.2505C172.796 91.2932 173.035 90.5398 173.514 89.9902C173.993 89.4406 174.799 89.0506 175.934 88.8202C177.069 88.572 178.593 88.4479 180.508 88.4479H181.758V89.9902H180.561C179.196 89.9902 178.114 90.0523 177.317 90.1764C176.537 90.3004 175.987 90.522 175.668 90.8412C175.349 91.1425 175.189 91.568 175.189 92.1176C175.189 92.809 175.429 93.3763 175.907 93.8195C176.404 94.2627 177.077 94.4843 177.928 94.4843C178.602 94.4843 179.196 94.3247 179.71 94.0056C180.224 93.6688 180.632 93.2256 180.933 92.676C181.235 92.1087 181.385 91.4616 181.385 90.7348V87.6767C181.385 86.6307 181.173 85.8773 180.747 85.4164C180.322 84.9377 179.604 84.6984 178.593 84.6984C178.008 84.6984 177.405 84.7782 176.785 84.9377C176.164 85.0973 175.517 85.3455 174.844 85.6823C174.578 85.8064 174.347 85.8507 174.152 85.8153C173.957 85.7621 173.798 85.6557 173.674 85.4962C173.567 85.3189 173.505 85.1327 173.487 84.9377C173.487 84.725 173.532 84.5211 173.62 84.3261C173.727 84.1311 173.904 83.9893 174.152 83.9006C174.932 83.5106 175.703 83.2358 176.466 83.0763C177.246 82.899 177.973 82.8104 178.646 82.8104C179.799 82.8104 180.747 82.9965 181.492 83.3688C182.236 83.7234 182.795 84.2818 183.167 85.0441C183.539 85.7887 183.725 86.746 183.725 87.916V94.9363C183.725 95.3441 183.628 95.6543 183.433 95.867C183.238 96.0798 182.954 96.1861 182.582 96.1861C182.227 96.1861 181.944 96.0798 181.731 95.867C181.536 95.6543 181.438 95.3441 181.438 94.9363V93.0483H181.678C181.536 93.7042 181.27 94.2715 180.88 94.7502C180.49 95.2288 180.002 95.6011 179.417 95.867C178.85 96.1152 178.203 96.2393 177.476 96.2393ZM192.905 96.2393C191.859 96.2393 190.982 96.0532 190.272 95.6809C189.581 95.3086 189.058 94.7679 188.703 94.0588C188.367 93.3497 188.198 92.481 188.198 91.4528V84.9111H186.496C186.177 84.9111 185.929 84.8314 185.752 84.6718C185.574 84.4945 185.486 84.2641 185.486 83.9804C185.486 83.679 185.574 83.4486 185.752 83.289C185.929 83.1295 186.177 83.0497 186.496 83.0497H188.198V80.1512C188.198 79.7434 188.305 79.442 188.517 79.247C188.73 79.0343 189.031 78.9279 189.421 78.9279C189.811 78.9279 190.104 79.0343 190.299 79.247C190.512 79.442 190.618 79.7434 190.618 80.1512V83.0497H193.836C194.173 83.0497 194.43 83.1295 194.607 83.289C194.784 83.4486 194.873 83.679 194.873 83.9804C194.873 84.2641 194.784 84.4945 194.607 84.6718C194.43 84.8314 194.173 84.9111 193.836 84.9111H190.618V91.24C190.618 92.2151 190.822 92.9508 191.23 93.4472C191.637 93.9436 192.311 94.1917 193.251 94.1917C193.588 94.1917 193.871 94.1652 194.102 94.112C194.332 94.0411 194.536 94.0056 194.713 94.0056C194.873 93.9879 195.006 94.0411 195.112 94.1652C195.236 94.2892 195.298 94.5197 195.298 94.8565C195.298 95.1047 195.254 95.3352 195.165 95.5479C195.094 95.7429 194.944 95.8759 194.713 95.9468C194.501 96.0177 194.217 96.0798 193.862 96.133C193.508 96.2039 193.189 96.2393 192.905 96.2393ZM202.917 96.2393C201.517 96.2393 200.311 95.9734 199.301 95.4416C198.308 94.892 197.537 94.1208 196.987 93.1281C196.438 92.1176 196.163 90.9298 196.163 89.5647C196.163 88.2174 196.429 87.0385 196.961 86.028C197.51 85.0175 198.255 84.2286 199.194 83.6613C200.152 83.094 201.242 82.8104 202.465 82.8104C203.334 82.8104 204.114 82.9611 204.805 83.2624C205.514 83.5461 206.117 83.9627 206.614 84.5123C207.11 85.0618 207.482 85.7355 207.73 86.5332C207.996 87.3133 208.129 88.1997 208.129 89.1924C208.129 89.4761 208.041 89.6977 207.863 89.8572C207.704 89.9991 207.465 90.07 207.145 90.07H198.051V88.5276H206.534L206.082 88.8999C206.082 87.9781 205.94 87.198 205.656 86.5598C205.39 85.9039 204.991 85.4075 204.46 85.0707C203.946 84.7339 203.298 84.5654 202.518 84.5654C201.667 84.5654 200.941 84.7693 200.338 85.1771C199.735 85.5671 199.274 86.1255 198.955 86.8524C198.636 87.5615 198.476 88.3858 198.476 89.3254V89.485C198.476 91.0805 198.858 92.286 199.62 93.1015C200.382 93.917 201.481 94.3247 202.917 94.3247C203.485 94.3247 204.061 94.2538 204.646 94.112C205.249 93.9701 205.825 93.7131 206.374 93.3408C206.64 93.1812 206.88 93.1103 207.092 93.1281C207.323 93.1281 207.509 93.199 207.651 93.3408C207.793 93.4649 207.881 93.6244 207.917 93.8195C207.952 93.9967 207.925 94.1917 207.837 94.4045C207.748 94.6172 207.58 94.8034 207.332 94.9629C206.747 95.3707 206.046 95.6898 205.231 95.9202C204.433 96.133 203.662 96.2393 202.917 96.2393ZM203.423 81.1883C203.281 81.3833 203.112 81.4985 202.917 81.5339C202.74 81.5694 202.563 81.5428 202.385 81.4542C202.208 81.3478 202.084 81.206 202.013 81.0287C201.942 80.8514 201.96 80.6475 202.066 80.4171L204.247 76.189C204.371 75.9053 204.539 75.728 204.752 75.6571C204.965 75.5685 205.178 75.5507 205.39 75.6039C205.621 75.6571 205.816 75.7635 205.975 75.923C206.135 76.0649 206.224 76.251 206.241 76.4815C206.277 76.6942 206.224 76.9158 206.082 77.1463L203.423 81.1883Z" fill="white"/>
<path d="M124.897 150.488C124.127 150.488 123.531 150.278 123.111 149.858C122.691 149.403 122.481 148.772 122.481 147.967V115.563C122.481 114.757 122.691 114.145 123.111 113.725C123.566 113.304 124.179 113.094 124.949 113.094H137.449C141.44 113.094 144.504 114.04 146.64 115.93C148.811 117.786 149.896 120.43 149.896 123.861C149.896 126.102 149.406 128.027 148.426 129.638C147.445 131.213 146.027 132.421 144.171 133.262C142.316 134.102 140.075 134.522 137.449 134.522L137.974 133.787H139.13C140.53 133.787 141.738 134.137 142.753 134.837C143.804 135.538 144.732 136.658 145.537 138.199L150.369 147.074C150.684 147.634 150.824 148.177 150.789 148.702C150.754 149.228 150.561 149.665 150.211 150.015C149.861 150.33 149.353 150.488 148.688 150.488C147.988 150.488 147.428 150.348 147.007 150.068C146.587 149.753 146.22 149.298 145.905 148.702L140.233 138.304C139.462 136.833 138.587 135.87 137.607 135.415C136.626 134.925 135.313 134.68 133.668 134.68H127.365V147.967C127.365 148.772 127.155 149.403 126.735 149.858C126.35 150.278 125.737 150.488 124.897 150.488ZM127.365 130.898H136.661C139.462 130.898 141.563 130.321 142.964 129.165C144.364 127.975 145.064 126.242 145.064 123.966C145.064 121.69 144.364 119.974 142.964 118.819C141.563 117.663 139.462 117.086 136.661 117.086H127.365V130.898ZM169.635 156.528C169.075 156.528 168.603 156.335 168.217 155.95C167.832 155.565 167.64 155.092 167.64 154.532V149.438L168.638 150.383C166.187 150.348 163.963 150.015 161.968 149.385C159.972 148.755 158.309 147.967 156.978 147.022C156.523 146.707 156.208 146.339 156.033 145.919C155.858 145.464 155.805 145.026 155.875 144.606C155.945 144.151 156.121 143.766 156.401 143.45C156.716 143.135 157.083 142.943 157.504 142.873C157.924 142.803 158.414 142.943 158.974 143.293C160.094 144.063 161.46 144.746 163.071 145.341C164.716 145.901 166.747 146.181 169.163 146.181C171.089 146.181 172.682 145.936 173.942 145.446C175.203 144.921 176.13 144.203 176.726 143.293C177.356 142.383 177.671 141.35 177.671 140.194C177.671 139.214 177.443 138.374 176.988 137.673C176.568 136.973 175.885 136.378 174.94 135.888C173.995 135.397 172.734 134.995 171.159 134.68L165.802 133.524C162.65 132.824 160.287 131.686 158.711 130.111C157.171 128.5 156.401 126.382 156.401 123.756C156.401 121.725 156.891 119.904 157.871 118.294C158.887 116.683 160.287 115.405 162.073 114.46C163.893 113.514 165.994 112.989 168.375 112.884L167.64 113.62V108.683C167.64 108.122 167.832 107.65 168.217 107.265C168.603 106.88 169.075 106.687 169.635 106.687C170.196 106.687 170.668 106.88 171.053 107.265C171.439 107.65 171.631 108.122 171.631 108.683V113.62L170.791 112.884C172.436 112.919 174.17 113.269 175.99 113.935C177.811 114.565 179.369 115.458 180.665 116.613C181.05 116.928 181.295 117.296 181.4 117.716C181.54 118.136 181.54 118.539 181.4 118.924C181.295 119.309 181.085 119.624 180.77 119.869C180.489 120.114 180.122 120.254 179.667 120.289C179.246 120.289 178.774 120.114 178.249 119.764C177.093 118.924 175.815 118.259 174.415 117.769C173.049 117.278 171.404 117.033 169.478 117.033C166.957 117.033 164.944 117.646 163.438 118.871C161.968 120.062 161.232 121.637 161.232 123.598C161.232 125.139 161.688 126.364 162.598 127.275C163.543 128.15 165.066 128.815 167.167 129.27L172.629 130.478C175.99 131.178 178.476 132.299 180.087 133.839C181.697 135.345 182.503 137.376 182.503 139.932C182.503 141.927 181.995 143.678 180.98 145.184C179.999 146.689 178.616 147.88 176.831 148.755C175.08 149.63 173.049 150.155 170.738 150.33L171.631 149.385V154.532C171.631 155.092 171.439 155.565 171.053 155.95C170.703 156.335 170.231 156.528 169.635 156.528ZM197.555 150.698C196.05 150.698 194.527 150.488 192.986 150.068C191.445 149.648 190.01 149.017 188.679 148.177C187.979 147.827 187.489 147.337 187.209 146.707C186.964 146.041 186.894 145.376 186.999 144.711C187.104 144.046 187.366 143.468 187.787 142.978C188.207 142.453 188.732 142.12 189.362 141.98C190.027 141.805 190.78 141.91 191.621 142.295C192.706 142.89 193.739 143.31 194.719 143.555C195.735 143.801 196.715 143.923 197.66 143.923C199.516 143.923 201.091 143.503 202.387 142.663C203.682 141.822 204.645 140.562 205.276 138.881C205.941 137.166 206.273 135.082 206.273 132.631V129.218H207.009C206.729 130.863 206.151 132.281 205.276 133.472C204.4 134.662 203.297 135.573 201.967 136.203C200.636 136.833 199.166 137.148 197.555 137.148C195.489 137.148 193.634 136.64 191.988 135.625C190.343 134.575 189.047 133.139 188.102 131.318C187.156 129.498 186.684 127.45 186.684 125.174C186.684 122.723 187.209 120.552 188.259 118.661C189.31 116.736 190.78 115.23 192.671 114.145C194.562 113.059 196.732 112.517 199.183 112.517C202.369 112.517 205.048 113.252 207.219 114.722C209.425 116.158 211.105 118.276 212.261 121.077C213.416 123.843 213.994 127.187 213.994 131.108C213.994 134.225 213.609 136.991 212.838 139.406C212.103 141.822 211.035 143.871 209.635 145.551C208.234 147.232 206.501 148.51 204.435 149.385C202.404 150.26 200.111 150.698 197.555 150.698ZM199.656 130.793C200.741 130.793 201.687 130.548 202.492 130.058C203.332 129.533 203.98 128.815 204.435 127.905C204.89 126.994 205.118 125.962 205.118 124.806C205.118 123.616 204.89 122.565 204.435 121.655C203.98 120.745 203.332 120.044 202.492 119.554C201.687 119.064 200.741 118.819 199.656 118.819C198.571 118.819 197.625 119.064 196.82 119.554C196.015 120.044 195.367 120.745 194.877 121.655C194.422 122.565 194.194 123.616 194.194 124.806C194.194 125.962 194.422 126.994 194.877 127.905C195.367 128.815 196.015 129.533 196.82 130.058C197.625 130.548 198.571 130.793 199.656 130.793ZM229.046 150.698C227.541 150.698 226.018 150.488 224.477 150.068C222.936 149.648 221.501 149.017 220.17 148.177C219.47 147.827 218.98 147.337 218.7 146.707C218.455 146.041 218.385 145.376 218.49 144.711C218.595 144.046 218.857 143.468 219.278 142.978C219.698 142.453 220.223 142.12 220.853 141.98C221.518 141.805 222.271 141.91 223.112 142.295C224.197 142.89 225.23 143.31 226.21 143.555C227.226 143.801 228.206 143.923 229.151 143.923C231.007 143.923 232.582 143.503 233.878 142.663C235.173 141.822 236.136 140.562 236.767 138.881C237.432 137.166 237.764 135.082 237.764 132.631V129.218H238.5C238.22 130.863 237.642 132.281 236.767 133.472C235.891 134.662 234.788 135.573 233.458 136.203C232.127 136.833 230.657 137.148 229.046 137.148C226.98 137.148 225.125 136.64 223.479 135.625C221.834 134.575 220.538 133.139 219.593 131.318C218.647 129.498 218.175 127.45 218.175 125.174C218.175 122.723 218.7 120.552 219.75 118.661C220.801 116.736 222.271 115.23 224.162 114.145C226.053 113.059 228.223 112.517 230.674 112.517C233.86 112.517 236.539 113.252 238.71 114.722C240.916 116.158 242.596 118.276 243.752 121.077C244.907 123.843 245.485 127.187 245.485 131.108C245.485 134.225 245.1 136.991 244.329 139.406C243.594 141.822 242.526 143.871 241.126 145.551C239.725 147.232 237.992 148.51 235.926 149.385C233.895 150.26 231.602 150.698 229.046 150.698ZM231.147 130.793C232.232 130.793 233.178 130.548 233.983 130.058C234.823 129.533 235.471 128.815 235.926 127.905C236.381 126.994 236.609 125.962 236.609 124.806C236.609 123.616 236.381 122.565 235.926 121.655C235.471 120.745 234.823 120.044 233.983 119.554C233.178 119.064 232.232 118.819 231.147 118.819C230.062 118.819 229.116 119.064 228.311 119.554C227.506 120.044 226.858 120.745 226.368 121.655C225.913 122.565 225.685 123.616 225.685 124.806C225.685 125.962 225.913 126.994 226.368 127.905C226.858 128.815 227.506 129.533 228.311 130.058C229.116 130.548 230.062 130.793 231.147 130.793ZM251.861 121.524C251.588 121.377 251.43 121.167 251.388 120.894C251.367 120.621 251.451 120.327 251.64 120.012L253.846 116.545L254.193 117.049L250.065 117.207C249.687 117.207 249.382 117.134 249.151 116.986C248.941 116.818 248.836 116.577 248.836 116.262C248.836 115.968 248.941 115.747 249.151 115.6C249.382 115.432 249.687 115.358 250.065 115.379L254.193 115.537L253.846 116.01L251.672 112.512C251.462 112.197 251.378 111.903 251.42 111.629C251.462 111.356 251.609 111.146 251.861 110.999C252.113 110.852 252.365 110.842 252.617 110.968C252.89 111.094 253.111 111.325 253.279 111.661L255.075 115.127H254.76L256.556 111.661C256.745 111.325 256.966 111.094 257.218 110.968C257.491 110.842 257.754 110.852 258.006 110.999C258.258 111.167 258.394 111.388 258.415 111.661C258.457 111.934 258.373 112.228 258.163 112.543L255.989 116.01L255.642 115.537L259.77 115.379C260.149 115.358 260.443 115.432 260.653 115.6C260.884 115.747 260.999 115.968 260.999 116.262C260.999 116.577 260.884 116.818 260.653 116.986C260.443 117.134 260.149 117.207 259.77 117.207L255.642 117.049L255.989 116.545L258.163 120.012C258.373 120.327 258.457 120.621 258.415 120.894C258.394 121.146 258.258 121.346 258.006 121.493C257.733 121.661 257.46 121.682 257.186 121.556C256.934 121.43 256.724 121.209 256.556 120.894L254.76 117.428H255.075L253.248 120.894C253.079 121.23 252.869 121.461 252.617 121.587C252.365 121.713 252.113 121.692 251.861 121.524Z" fill="white"/>
<path d="M272.229 98.2356L288.12 103.967C290.47 104.824 293.048 104.828 295.404 103.978C297.76 103.128 299.743 101.478 301.006 99.318M272.229 98.2356L272.399 97.7654M272.229 98.2356C270.788 97.7146 269.476 96.8912 268.382 95.8207C267.288 94.7503 266.437 93.4577 265.886 92.0301C265.335 90.6024 265.097 89.0729 265.188 87.5444C265.28 86.016 265.698 84.5241 266.415 83.1693C275.425 66.1837 289.729 52.5803 307.16 44.4197C324.591 36.2591 344.199 33.9858 363.015 37.9444C364.514 38.2612 365.928 38.8954 367.16 39.8041C368.393 40.7128 369.415 41.8751 370.159 43.2125C370.902 44.5499 371.35 46.0315 371.471 47.5574C371.593 49.0833 371.385 50.6182 370.862 52.0586M272.229 98.2356L272.399 97.7653M272.399 97.7654L288.29 103.497L288.291 103.497C290.531 104.314 292.989 104.317 295.234 103.507C297.48 102.697 299.37 101.125 300.574 99.0665M272.399 97.7654L272.399 97.7653M272.399 97.7654C272.399 97.7654 272.399 97.7653 272.399 97.7653M300.574 99.0665C300.574 99.0667 300.574 99.067 300.573 99.0673L301.006 99.318M300.574 99.0665C300.574 99.0662 300.574 99.0659 300.574 99.0657L301.006 99.318M300.574 99.0665C305.795 90.0602 313.653 82.863 323.09 78.4452C332.526 74.0275 343.086 72.6015 353.347 74.3596M301.006 99.318C306.176 90.3998 313.957 83.2728 323.302 78.8981C332.646 74.5234 343.103 73.1114 353.263 74.8526M353.263 74.8526L353.345 74.3594C353.346 74.3595 353.346 74.3595 353.347 74.3596M353.263 74.8526C355.729 75.2621 358.263 74.7933 360.421 73.5281C362.579 72.263 364.225 70.2821 365.071 67.9314L370.862 52.0586M353.263 74.8526L353.348 74.3598C353.347 74.3597 353.347 74.3597 353.347 74.3596M353.347 74.3596C355.696 74.7495 358.111 74.3026 360.168 73.0968C362.226 71.8908 363.794 70.0025 364.601 67.762L364.602 67.76L370.392 51.888L370.862 52.0586M370.862 52.0586L370.392 51.8872L370.392 51.8877C370.891 50.5146 371.088 49.0515 370.973 47.597C370.857 46.1425 370.431 44.7303 369.722 43.4555C369.013 42.1807 368.038 41.0728 366.864 40.2065C365.689 39.3403 364.341 38.7357 362.911 38.4336C344.202 34.4975 324.705 36.7579 307.372 44.8725C290.039 52.9871 275.816 66.5138 266.857 83.4032C266.173 84.6949 265.775 86.1172 265.687 87.5743C265.6 89.0313 265.827 90.4893 266.352 91.8501C266.877 93.2109 267.689 94.4429 268.732 95.4633C269.775 96.4836 271.025 97.2686 272.399 97.7653" stroke="white"/>
<path d="M141.711 206.297L141.71 206.298C140.594 207.73 139.011 208.726 137.234 209.111C135.459 209.497 133.604 209.248 131.995 208.409C124.857 204.638 116.731 203.142 108.711 204.121C100.691 205.1 93.1638 208.508 87.1436 213.886C85.7837 215.092 84.0421 215.782 82.2237 215.836C80.405 215.891 78.6258 215.305 77.1974 214.183L77.1961 214.182L66.8976 206.148C66.0203 205.463 65.3007 204.598 64.7871 203.611C64.2736 202.625 63.978 201.54 63.9203 200.43C63.8626 199.32 64.0441 198.21 64.4526 197.176C64.8611 196.141 65.4872 195.205 66.2888 194.432C76.9173 184.193 90.6 177.685 105.264 175.894C119.929 174.104 134.775 177.128 147.556 184.508C148.52 185.066 149.352 185.823 149.998 186.729C150.643 187.635 151.087 188.669 151.298 189.76C151.509 190.851 151.483 191.975 151.222 193.056C150.961 194.137 150.471 195.15 149.784 196.026C149.784 196.026 149.784 196.026 149.784 196.026L141.711 206.297Z" stroke="white"/>
</g>
<defs>
<clipPath id="clip0_306_3070">
<rect width="380" height="240" fill="white"/>
</clipPath>
</defs>
</svg>
